<svg id="Layer_1" data-name="Layer 1" xmlns="http://www.w3.org/2000/svg" viewBox="0 0 1365.6 453.13"><defs><style>.cls-1{fill:#5cb15d;}.cls-2{fill:#ffff78;}.cls-3{fill:#fdffb6;}.cls-4{fill:#ffb6ea;}.cls-5{fill:#f0bd1c;}.cls-6{fill:#ea78ed;}.cls-7{fill:#7acaed;}.cls-8{fill:#3061ce;}</style></defs><title>back_flowers</title><path class="cls-1" d="M472.8,133.18a454.35,454.35,0,0,0,35.44,182.41c1.88,4.48,5.94,7.7,11.07,6.29,4.21-1.16,8.18-6.56,6.28-11.07A441.64,441.64,0,0,1,490.8,133.18c.16-11.59-17.84-11.59-18,0Z" transform="translate(-3.13 -3.09)"/><g id="Flower"><path class="cls-2" d="M524.2,148.25c7.56-3.58,3.2-16.89-9.54-33.72,30.3-.43,51.74-3.92,53.65-9.65S552.09,92.64,523.58,87.7c23-14.09,35.79-26.09,30.93-30.61s-26.13-.43-53.71,9.41c2.25-19.49-1.13-33-9.91-33.65s-20.74,11.64-31.24,30.5c-19.83-13.47-37.38-20.54-44.94-17s-3.2,16.89,9.54,33.72c-30.3.44-51.74,3.92-53.64,9.65s16.21,12.24,44.72,17.18c-23,14.09-35.79,26.09-30.93,30.62s26.13.42,53.72-9.42c-2.26,19.49,1.12,33,9.9,33.65s20.74-11.64,31.24-30.5C499.09,144.75,516.64,151.82,524.2,148.25Z" transform="translate(-3.13 -3.09)"/><ellipse class="cls-3" cx="468.16" cy="97.22" rx="31.95" ry="20.27" transform="translate(-10.68 45.92) rotate(-5.95)"/></g><path class="cls-1" d="M1067.87,227.72c28.89,38.54,32.2,93,7.27,134.41-6,9.95,9.56,19,15.54,9.09,27.93-46.38,25.3-109.14-7.27-152.58-2.91-3.89-7.77-5.88-12.31-3.23-3.83,2.24-6.16,8.4-3.23,12.31Z" transform="translate(-3.13 -3.09)"/><g id="Flower-2" data-name="Flower"><path class="cls-4" d="M1112.42,225.64c5.57-3.95.17-14-12.46-25.74,24.29-4.67,41-10.52,41.74-15.39s-14.77-7.54-38.39-7.45c16.5-14.6,25.06-26.07,20.5-29s-21.06,3.37-41.83,15.21c-1-16-5.6-26.35-12.76-25.64s-15,12.31-20.77,29c-17.85-8-33-11.19-38.53-7.24s-.17,14,12.46,25.74c-24.29,4.67-41,10.52-41.75,15.39s14.78,7.54,38.4,7.45c-16.5,14.6-25.06,26.07-20.51,29s21.07-3.37,41.84-15.21c1,16,5.6,26.35,12.75,25.64s15-12.31,20.77-29C1091.74,226.4,1106.85,229.59,1112.42,225.64Z" transform="translate(-3.13 -3.09)"/><ellipse class="cls-3" cx="1060.11" cy="192.59" rx="26.08" ry="16.55" transform="translate(-15.18 296.27) rotate(-15.98)"/></g><path class="cls-1" d="M826.94,137.72c-37.75,49.47-54.79,114.4-47.47,176.1a238.66,238.66,0,0,0,12,52.15c3.86,10.84,21.25,6.17,17.36-4.79a227.5,227.5,0,0,1,33.65-214.37c2.95-3.87.6-10.08-3.23-12.32-4.63-2.7-9.35-.64-12.31,3.23Z" transform="translate(-3.13 -3.09)"/><g id="Flower-3" data-name="Flower"><path class="cls-5" d="M771.49,127.9c-7.24-7.72,6.53-19.15,33-29.77-37.7-16.58-62.4-31.6-61.21-38.53s28-4,66.79,6.05c-20.05-26.81-28.56-46-19.64-48.1s33,13.47,61.44,38.33c9.35-21.35,22-33.49,33.43-29.51S904,49.44,905.41,74.53c33.27-3.37,59.69-1.33,66.93,6.38s-6.54,19.16-33,29.77c37.71,16.58,62.4,31.6,61.21,38.53s-28,4-66.78-6.05c20,26.82,28.56,46,19.63,48.11s-33-13.47-61.43-38.33c-9.35,21.34-22,33.48-33.44,29.5s-18.72-23.07-20.1-48.15C805.14,137.65,778.73,135.62,771.49,127.9Z" transform="translate(-3.13 -3.09)"/><ellipse class="cls-3" cx="873.6" cy="104.99" rx="24.42" ry="43.17" transform="translate(422.11 858.98) rotate(-66.22)"/></g><path class="cls-1" d="M175.58,140.17c27.15,29.53,66.46,41.88,103.9,52.52,37.08,10.53,77.36,21.3,102.75,52.51,12.47,15.32,19.49,34.37,16.88,54.16-.64,4.83,4.59,9,9,9,5.39,0,8.36-4.15,9-9,5.25-39.76-23-75.81-55.57-95-36.31-21.36-78.72-27.13-117.66-41.84-20.72-7.83-40.45-18.66-55.57-35.11-7.85-8.55-20.56,4.21-12.73,12.73Z" transform="translate(-3.13 -3.09)"/><g id="Flower-4" data-name="Flower"><path class="cls-6" d="M255.68,117.21c11.08-8.36,1.5-19.64-21.92-29.51,47.33-18.93,80.16-35.65,81.95-42.81s-27.91-3-73.55,9.26c33.1-28.8,50.6-49.15,42-50.93s-41,15.48-82.1,42.61C201.6,24,193.52,12,179.64,16.62s-30,24.83-42.56,51c-33.83-2-62.76,1.27-73.84,9.62s-1.51,19.64,21.91,29.51C37.83,125.67,5,142.39,3.21,149.55s27.9,2.94,73.54-9.26c-33.1,28.79-50.6,49.15-42,50.93s41-15.49,82.1-42.61c.52,21.79,8.6,33.86,22.48,29.21s30-24.84,42.56-51C215.66,128.85,244.59,125.56,255.68,117.21Z" transform="translate(-3.13 -3.09)"/><ellipse class="cls-3" cx="157.41" cy="97.9" rx="54.12" ry="21.13" transform="translate(-30.04 75.04) rotate(-25.76)"/></g><path class="cls-1" d="M627.58,147.39c-5.87,37,5.26,72.53,18.22,106.78,11.91,31.48,25.34,63.79,23.7,98.11-.82,17.2-5.86,33.74-16.16,47.66-2.89,3.91-.65,10,3.23,12.31,4.58,2.68,9.41.69,12.31-3.23,19.65-26.55,21.75-61.73,15.67-93.19-6.87-35.56-23.95-68-33.79-102.67-5.6-19.71-9.07-40.54-5.82-61,.76-4.79-1.23-9.68-6.28-11.07-4.29-1.18-10.31,1.46-11.08,6.29Z" transform="translate(-3.13 -3.09)"/><path class="cls-1" d="M608.42,284.71c-20.34,25.43-41.37,52.39-45.68,85.71-3.9,30.1,6.49,61,27.27,83,8,8.45,20.68-4.3,12.73-12.73-17.2-18.23-25.82-44.53-22.1-69.44,4.26-28.44,23.08-52,40.51-73.84,3-3.79,3.7-9,0-12.73-3.14-3.14-9.68-3.81-12.73,0Z" transform="translate(-3.13 -3.09)"/><g id="Flower-5" data-name="Flower"><path class="cls-7" d="M553.41,294.4c-8.33-5.56,1.91-19.06,24-34.52-38.31-7.2-64.3-15.75-64.69-22.39s24.91-9.71,62.86-8.75c-24.23-20.43-36.2-36.3-28.42-40.14s33.32,5.33,64.86,22.15c4-21.68,13.1-35.59,24.49-34.37s22.21,17.25,28.87,40.07c30-10.24,54.74-14,63.06-8.47s-1.91,19.06-24,34.53c38.32,7.19,64.31,15.74,64.7,22.38s-24.92,9.71-62.87,8.76c24.24,20.42,36.21,36.29,28.43,40.13s-33.33-5.33-64.87-22.15c-4,21.68-13.1,35.59-24.49,34.37s-22.21-17.25-28.86-40.07C586.52,296.17,561.74,300,553.41,294.4Z" transform="translate(-3.13 -3.09)"/><ellipse class="cls-3" cx="642.63" cy="251.37" rx="23.12" ry="40.86" transform="translate(273.42 833.2) rotate(-79.32)"/></g><path class="cls-1" d="M1212.18,163c-34,44.59-49.36,103.16-42.67,158.76a215.63,215.63,0,0,0,10.75,46.7c3.86,10.84,21.26,6.17,17.36-4.79a203.16,203.16,0,0,1,30.1-191.58c3-3.87.6-10.07-3.23-12.31-4.63-2.71-9.36-.65-12.31,3.22Z" transform="translate(-3.13 -3.09)"/><g id="Flower-6" data-name="Flower"><path class="cls-8" d="M1163.24,154.67c-6.5-6.92,5.86-17.18,29.61-26.7-33.82-14.88-56-28.35-54.91-34.57s25.09-3.6,59.91,5.44c-18-24.06-25.62-41.29-17.62-43.16s29.62,12.09,55.12,34.38c8.38-19.14,19.74-30,30-26.46s16.79,20.69,18,43.19c29.84-3,53.54-1.19,60,5.73s-5.86,17.18-29.61,26.7c33.82,14.88,56,28.35,54.9,34.57s-25.08,3.6-59.91-5.43c18,24,25.62,41.28,17.62,43.15s-29.61-12.08-55.11-34.38c-8.39,19.14-19.74,30-30,26.46s-16.8-20.69-18-43.19C1193.42,163.42,1169.73,161.59,1163.24,154.67Z" transform="translate(-3.13 -3.09)"/><ellipse class="cls-3" cx="1254.83" cy="134.12" rx="21.91" ry="38.72" transform="translate(622.95 1225.22) rotate(-66.22)"/></g></svg>