<svg id="Layer_1" data-name="Layer 1" xmlns="http://www.w3.org/2000/svg" viewBox="0 0 130.45 147.03"><defs><style>.cls-1{fill:#c993e5;}.cls-2{fill:#9a58c4;}</style></defs><title>bud</title><path class="cls-1" d="M129.51,106.05c-13.41,37-44.8,50.9-81.8,37.5s-56.12-47.05-38-82c16.1-31,41.85-36,64.93-38.74,30.52-3.55,41.28-21.31,41.28-21.31S142.91,69.05,129.51,106.05Z" transform="translate(-2.79 -1.52)"/><path class="cls-2" d="M105.24,31.25A73.38,73.38,0,0,1,55,120c-3.69,1.08-2.12,6.88,1.6,5.79A79.51,79.51,0,0,0,111,29.66c-1-3.74-6.76-2.15-5.79,1.59Z" transform="translate(-2.79 -1.52)"/><path class="cls-2" d="M73.37,52.33A71,71,0,0,1,40.42,90.46c-3.39,1.85-.36,7,3,5.18A77.28,77.28,0,0,0,79.16,53.92c1.32-3.63-4.48-5.2-5.79-1.59Z" transform="translate(-2.79 -1.52)"/><path class="cls-2" d="M68,39.65A73.17,73.17,0,0,0,28,84.26c-1.19,3.68,4.6,5.26,5.78,1.59A67.43,67.43,0,0,1,71,44.83c3.53-1.55.48-6.72-3-5.18Z" transform="translate(-2.79 -1.52)"/></svg>