<?xml version="1.0" encoding="utf-8"?>
<!-- Generator: Adobe Illustrator 22.0.1, SVG Export Plug-In . SVG Version: 6.00 Build 0)  -->
<svg version="1.1" id="Layer_1" xmlns="http://www.w3.org/2000/svg" xmlns:xlink="http://www.w3.org/1999/xlink" x="0px" y="0px"
	 viewBox="0 0 223 454.7" style="enable-background:new 0 0 223 454.7;" xml:space="preserve">
<style type="text/css">
	.st0{fill:#3D3D3D;}
	.st1{fill:#EFE15B;stroke:#B3B3B3;stroke-miterlimit:10;}
	.st2{fill:#F5F5F5;stroke:#B3B3B3;stroke-miterlimit:10;}
</style>
<g>
	<g>
		<path class="st0" d="M57.1,336.5C34.8,360.8,22.4,393,22.7,426c0,3.9,6,3.9,6,0c-0.4-31.4,11.3-62.1,32.6-85.3
			C63.9,337.9,59.7,333.7,57.1,336.5L57.1,336.5z"/>
	</g>
	<g>
		<path class="st0" d="M93.6,334.8c9.6,31.5,31,58.6,59.6,75c3.4,1.9,6.4-3.3,3-5.2c-27.3-15.7-47.7-41.4-56.9-71.4
			C98.3,329.5,92.5,331,93.6,334.8L93.6,334.8z"/>
	</g>
	<path class="st1" d="M72.3,411.3c16.6,2,27.8,8,25.9,24.6c-2,16.6-17.5,17.5-34.1,15.5S20,426.6,20,426.6S55.7,409.3,72.3,411.3z"
		/>
	<path class="st1" d="M183.4,367.5c14.5-8.3,27.1-10.2,35.4,4.3s-3.6,24.5-18.1,32.8c-14.5,8.3-50.2,6.4-50.2,6.4
		S168.9,375.8,183.4,367.5z"/>
	<path class="st2" d="M109.6,149.5c7.7-16.2,16.5-37.6,21.9-54.3c15.8-48.5,28.6-87.9,8.7-93.4c-21.7-6-29,35-40.2,84.8
		c-3.1,14.1-6.1,35.8-7.7,53.8c-4-1.2-8.1-1.9-12.4-1.9c-2.4,0-4.8,0.2-7.2,0.6c-2.3-17.2-5.8-37.1-9.2-50.2
		C50.8,39.5,42-1.2,20.5,5.5c-19.8,6.2-5.6,45.1,11.9,93c5.4,14.8,13.6,33.2,21.2,48.4C20.7,169.1-0.1,228.8-0.1,267.1
		c0,47.8,32,73.1,79.8,73.1c47.8,0,79.8-25.4,79.8-73.1C159.4,230.1,140.4,173.3,109.6,149.5z"/>
</g>
</svg>
