<svg id="Layer_1" data-name="Layer 1" xmlns="http://www.w3.org/2000/svg" viewBox="0 0 883.29 376.31"><defs><style>.cls-1{fill:#5cb15d;stroke:#5cb15d;stroke-miterlimit:10;}.cls-2{fill:#a2dff9;}.cls-3{fill:#fdffb6;}.cls-4{fill:#ffb6ea;}.cls-5{fill:#f0bd1c;}</style></defs><title>grass_right2</title><path id="lives1" class="cls-1" d="M663,144.47c-16.13-37.27-31-41.62-45.56,1.21-5.79-36.82-20.75-18.38-29.18-12.39C584,96,571.91,43.54,552.62,110.55c-9.06-30.6-30.07-38.4-33.87-11-22.52-30.13-81.4-33.73-13.59,46.06-31.21-13.54-41.82-3.4-26.78,35.94-15.5-.66-30.67,5.57-23.52,29.73-22.65-24.83-38.9-16.52-43.52,2.36-18.64-40-39.45-35.62-29.44-1.8-40.81-23-48.82,7.44,13.34,45.1-26.93,1-16.86,12-13.53,23.27-43.19-31-40.52,6.73-36.71,19.62-32.32-51.75-46.79-31.7-34.75,3.27-30.68-34.72-36.38-13.76-33.05-2.49-13.06-15.4-20.4-11.48-24.14-6.87-5.92-31.53-21.29-37.49-34.48-7.32-1.91-46.72-20.75-58.67-28.69-10.78-32.65-18.37-29.72,8.79-29.51,21C129.7,261.91,112,288.18,106.6,316c-12.93-20.7-24.35-21-23.87,20.93l6.39,23,732.71-2.56,5.34-342.06C806.08-10,783.58.2,789.23,42.32,776.78,23.23,757.88,34.07,771.76,58c-27.27-5.94-21.89,6.48-20.6,16.61C720.29,68,675.21,70.79,685.63,129,666.18,120.75,663,144.47,663,144.47Z" transform="translate(-3.94 -1.14)"/><g id="Flower"><path class="cls-2" d="M729.16,120.78c-6.2-4,1.13-15.51,17.16-29.31-28.25-3.54-47.47-8.9-47.85-14.25s18.17-9.31,46.06-10.79c-18.1-15.06-27.12-27.17-21.47-30.73s24.56,2.33,48,14c2.65-17.75,9.11-29.52,17.5-29.21s16.56,12.61,21.78,30.65c21.86-10,40-14.57,46.21-10.58s-1.13,15.51-17.16,29.31c28.25,3.54,47.47,8.9,47.85,14.25S869.05,93.48,841.16,95c18.1,15.06,27.12,27.17,21.47,30.73s-24.56-2.33-48-14c-2.65,17.75-9.11,29.51-17.5,29.21s-16.56-12.62-21.78-30.66C753.51,120.25,735.36,124.78,729.16,120.78Z" transform="translate(-3.94 -1.14)"/><ellipse class="cls-3" cx="794.08" cy="80.74" rx="18.8" ry="29.85" transform="translate(623.41 860.17) rotate(-83.75)"/></g><g id="Flower-2" data-name="Flower"><path class="cls-4" d="M651.82,131.82c-3.47-2.24.64-8.69,9.63-16.44-15.85-2-26.63-5-26.84-8s10.19-5.22,25.84-6C650.29,92.89,645.23,86.1,648.4,84.1s13.78,1.31,26.92,7.88c1.49-10,5.11-16.56,9.81-16.39s9.29,7.08,12.22,17.2c12.26-5.64,22.44-8.18,25.92-5.93s-.63,8.69-9.63,16.44c15.85,2,26.63,5,26.85,8s-10.19,5.22-25.84,6c10.15,8.45,15.22,15.24,12,17.24s-13.78-1.31-26.91-7.88c-1.49,10-5.11,16.56-9.81,16.39s-9.3-7.08-12.22-17.2C665.49,131.53,655.3,134.07,651.82,131.82Z" transform="translate(-3.94 -1.14)"/><ellipse class="cls-3" cx="688.24" cy="109.37" rx="10.55" ry="16.74" transform="translate(500.64 780.47) rotate(-83.75)"/></g><g id="Flower-3" data-name="Flower"><path class="cls-2" d="M39.87,319.25c-7.25-4.68,1.33-18.15,20.1-34.31-33.08-4.15-55.58-10.43-56-16.68s21.27-10.91,53.93-12.64c-21.19-17.63-31.76-31.81-25.13-36s28.75,2.73,56.17,16.45c3.11-20.79,10.67-34.57,20.48-34.2s19.4,14.77,25.51,35.89c25.59-11.76,46.85-17.07,54.1-12.39s-1.32,18.16-20.09,34.32c33.08,4.14,55.58,10.42,56,16.68S203.67,287.3,171,289c21.19,17.63,31.76,31.81,25.13,36s-28.76-2.73-56.17-16.44c-3.11,20.78-10.67,34.56-20.48,34.2S100.09,328,94,306.87C68.39,318.63,47.13,323.93,39.87,319.25Z" transform="translate(-3.94 -1.14)"/><ellipse class="cls-3" cx="115.89" cy="272.38" rx="22.01" ry="34.95" transform="translate(-171.43 356.77) rotate(-83.75)"/></g><g id="Flower-4" data-name="Flower"><path class="cls-4" d="M523.78,247.75c6.54-7.59-6.95-17.85-32.42-26.82,35-17.2,57.74-32.4,56.33-38.91s-26.61-2.67-62.91,8.42c17.88-26.17,25.15-44.67,16.63-46.28s-30.68,14.07-56.55,38.72c-9.71-19.8-22.17-30.77-32.81-26.55S395.27,178.9,395,202.68c-31.6-1.84-56.5,1.15-63,8.74s6.95,17.85,32.42,26.82c-35,17.2-57.74,32.4-56.33,38.91s26.61,2.67,62.91-8.42C353.08,294.9,345.8,313.4,354.32,315s30.68-14.08,56.56-38.73c9.7,19.81,22.16,30.78,32.81,26.55s16.77-22.57,17.06-46.35C492.35,258.33,517.25,255.34,523.78,247.75Z" transform="translate(-3.94 -1.14)"/><ellipse class="cls-3" cx="426.3" cy="230.21" rx="40.86" ry="23.12" transform="translate(-61.78 210.93) rotate(-26.22)"/></g><g id="Flower-5" data-name="Flower"><path class="cls-5" d="M399.92,345.77c8.33-5.56-1.92-19.06-24.05-34.53,38.32-7.19,64.31-15.74,64.7-22.38s-24.92-9.71-62.87-8.76c24.24-20.42,36.21-36.29,28.43-40.13s-33.33,5.33-64.87,22.15c-4-21.68-13.1-35.59-24.49-34.37S294.56,245,287.91,267.82c-30-10.24-54.74-14-63.07-8.47s1.91,19.06,24,34.52c-38.31,7.2-64.3,15.75-64.69,22.39S209.1,326,247.05,325c-24.23,20.43-36.2,36.3-28.42,40.14S252,359.82,283.49,343c4,21.68,13.1,35.59,24.49,34.37s22.21-17.25,28.87-40.07C366.8,347.54,391.59,351.33,399.92,345.77Z" transform="translate(-3.94 -1.14)"/><ellipse class="cls-3" cx="310.7" cy="302.74" rx="40.86" ry="23.12" transform="translate(-54.65 61.67) rotate(-10.68)"/></g></svg>