<?xml version="1.0" encoding="utf-8"?>
<!-- Generator: Adobe Illustrator 22.0.1, SVG Export Plug-In . SVG Version: 6.00 Build 0)  -->
<svg version="1.1" id="Layer_1" xmlns="http://www.w3.org/2000/svg" xmlns:xlink="http://www.w3.org/1999/xlink" x="0px" y="0px"
	 viewBox="0 0 800.5 164.5" style="enable-background:new 0 0 800.5 164.5;" xml:space="preserve">
<style type="text/css">
	.st0{fill:#5CB15D;stroke:#5CB15D;stroke-miterlimit:10;}
	.st1{fill:#FFB6EA;}
	.st2{fill:#FDFFB6;}
	.st3{fill:#F0BD1C;}
</style>
<path id="lives2" class="st0" d="M591.7,160.5c3.8-38.5-7.2-49.2-40.6-20.8c12.7-33.2-9.4-25.1-19.7-24.2
	c14.2-32.8,28.9-82-20.4-35.8c6.8-29.6-7.9-46.1-24.5-25.3c-5.3-35.7-55.3-66.8-34.1,31.5c-20.9-26.1-35.1-22.8-40.9,16.9
	c-13.3-8-29.6-10.1-35,13.3c-7.9-31.3-26.2-32.3-39.4-18.9c2.9-42-17.5-48.3-25-15.6c-24.8-38.5-46.5-17.2-10,43.6
	c-24.1-12.1-20.6,1.8-23.1,12.8c-23-46.3-38.9-13.8-41.7-1.4c-3.5-58.2-25.9-48.6-32.1-13.9C195,79.4,179.9,94,177.4,104.9
	c-4.1-19-12.4-19.2-17.9-17.2c10-28.9-0.7-41.2-26.8-22.5c20.8-39.5,10-58.4-20-22.6c-19.8-30.8-30.3-7-36,3.2
	C66.4,2.4,38.2,15.6,20.1,36C18.7,12.7,1.7,1.8,1.7,36.8l1,125l788,3l7.5-32.5c-6.3-31-31-33.4-46.3,4.1
	c-1.7-21.7-23.6-21.8-22.9,4.6c-21.1-18-22.4-5.1-26.1,3.9c-23.9-20.3-64.9-39.5-83.8,13.6C606,142.4,591.7,160.5,591.7,160.5z"/>
<g id="Flower_12_">
	<path class="st1" d="M496.2,135.1c-4.1-2.6,0.7-10.2,11.3-19.2c-18.6-2.3-31.2-5.8-31.4-9.4c-0.3-3.5,11.9-6.1,30.3-7.1
		c-11.9-9.9-17.8-17.8-14.1-20.2c3.7-2.3,16.1,1.5,31.5,9.2c1.7-11.7,6-19.4,11.5-19.2c5.5,0.2,10.9,8.3,14.3,20.1
		c14.4-6.6,26.3-9.6,30.3-6.9c4.1,2.6-0.7,10.2-11.3,19.2c18.6,2.3,31.2,5.8,31.4,9.4c0.3,3.5-11.9,6.1-30.3,7.1
		c11.9,9.9,17.8,17.8,14.1,20.2c-3.7,2.3-16.1-1.5-31.5-9.2c-1.7,11.7-6,19.4-11.5,19.2c-5.5-0.2-10.9-8.3-14.3-20.1
		C512.2,134.7,500.3,137.7,496.2,135.1z"/>
	
		<ellipse transform="matrix(0.1089 -0.9941 0.9941 0.1089 372.0521 632.6004)" class="st2" cx="538.9" cy="108.8" rx="12.3" ry="19.6"/>
</g>
<g id="Flower_5_">
	<path class="st1" d="M265.5,97.1c-5.8-4.2,0-14.8,13.4-26.9c-25.5-5.2-43-11.6-43.7-16.7c-0.7-5.1,15.6-7.7,40.5-7.3
		c-17.2-15.6-26-27.7-21.2-30.8c4.8-3,22.1,3.8,43.8,16.6c1.2-16.8,6.2-27.6,13.8-26.8c7.5,0.8,15.6,13.1,21.5,30.7
		c18.9-8.2,34.8-11.3,40.6-7.1s0,14.8-13.4,26.9c25.5,5.2,43,11.6,43.7,16.7c0.7,5.1-15.6,7.7-40.5,7.3c17.2,15.6,26,27.7,21.2,30.8
		c-4.8,3-22.1-3.8-43.8-16.6c-1.2,16.8-6.2,27.6-13.8,26.8c-7.5-0.8-15.6-13.1-21.5-30.7C287.2,98.2,271.3,101.3,265.5,97.1z"/>
	
		<ellipse transform="matrix(0.2873 -0.9579 0.9579 0.2873 168.3444 352.3173)" class="st2" cx="320.9" cy="63" rx="17.4" ry="27.4"/>
</g>
<g id="Flower_6_">
	<path class="st3" d="M383.5,117.8c-4.1-3,0-10.5,9.5-19.1c-18.1-3.7-30.5-8.2-31-11.9c-0.5-3.6,11.1-5.5,28.7-5.2
		c-12.2-11-18.5-19.7-15-21.8c3.4-2.2,15.7,2.7,31.1,11.7c0.9-11.9,4.4-19.6,9.8-19c5.3,0.6,11.1,9.3,15.2,21.8
		c13.4-5.8,24.7-8,28.8-5s0,10.5-9.5,19.1c18.1,3.7,30.5,8.2,31,11.9c0.5,3.6-11.1,5.5-28.7,5.2c12.2,11,18.5,19.7,15,21.8
		c-3.4,2.2-15.7-2.7-31.1-11.7c-0.9,11.9-4.4,19.6-9.8,19c-5.3-0.6-11.1-9.3-15.2-21.8C398.9,118.6,387.6,120.8,383.5,117.8z"/>
	
		<ellipse transform="matrix(0.2873 -0.9579 0.9579 0.2873 211.6738 471.7333)" class="st2" cx="422.8" cy="93.6" rx="12.3" ry="19.5"/>
</g>
</svg>
