<?xml version="1.0" encoding="utf-8"?>
<!-- Generator: Adobe Illustrator 22.0.1, SVG Export Plug-In . SVG Version: 6.00 Build 0)  -->
<svg version="1.1" id="dance" xmlns="http://www.w3.org/2000/svg" xmlns:xlink="http://www.w3.org/1999/xlink" x="0px" y="0px"
	 viewBox="0 0 210.1 334" style="enable-background:new 0 0 210.1 334;" xml:space="preserve">
<style type="text/css">
	.st0{fill:#B3B3B3;stroke:#8E8E8E;stroke-miterlimit:10;}
	.st1{fill:#FFFAD4;}
	.st2{fill:#FFD9E5;}
	.st3{stroke:#000000;stroke-width:3;stroke-miterlimit:10;}
	.st4{fill:none;stroke:#000000;stroke-width:3;stroke-miterlimit:10;}
</style>
<g>
	<path class="st0" d="M156.2,193.4c1.1-1.5,13.6-0.2,22.3-3.3c8.7-3.1,17.1-12.8,19.2-11.5c2.9,0.3,5.1,2.2,6.3,5.6
		c3.3,9.3-5,20.8-18.6,25.6s-27.3,1.2-30.6-8.1C153.5,198.1,154.1,195.3,156.2,193.4z"/>
	
		<ellipse transform="matrix(0.7776 -0.6288 0.6288 0.7776 -174.9326 120.0049)" class="st0" cx="82.2" cy="307.3" rx="28.9" ry="17.5"/>
	<path class="st0" d="M83.3,205.5c-1.1-1.5-13.6,0.1-22.3-2.9c-8.8-3-17.3-12.6-19.4-11.2c-2.9,0.4-5.1,2.3-6.3,5.7
		c-3.2,9.4,5.3,20.7,19,25.3s27.3,0.8,30.5-8.6C86.1,210.2,85.5,207.4,83.3,205.5z"/>
	<g id="body">
		<circle class="st0" cx="62.9" cy="273.3" r="13.1"/>
		<path class="st0" d="M63.5,256.1c-1.8,40.9,27.8,54.1,68.5,50.6c40.7-3.5,59.7-15.5,48.7-65.6c-9-40.6-24.2-54.7-62.2-55.3
			C91.2,185.5,65.6,209,63.5,256.1z"/>
		<path class="st1" d="M94.5,253.1c2,20.3,14.9,37.7,44.2,33.4c27.2-4,31.7-26.3,27.2-46.4c-4.9-21.9-14.5-41.5-44.1-36.4
			C95,208.4,92.4,231.1,94.5,253.1z"/>
	</g>
	<g id="rabbit_head">
		<path class="st0" d="M29.9,77.5C10.5,51.3-8.5,33,9.8,19C26.1,6.4,40.6,29,60,55.1c10.6,14.3,18.1,28.5,21.3,39.6
			c5.7-2.8,12-5.1,18.8-7c5.3-1.4,10.7-2.3,16-2.7c-3.1-16.9-9.1-72.4,4.4-80.9c18.8-11.9,80.9,21.7,27.5,30.3
			c-0.6,10.9-4.4,42.3-7,53c21.9,5.8,40.1,21.7,47.1,46.2c10.6,37.5-12.8,60.8-50.4,71.1c-38.9,10.6-82.1,2.9-91.7-34.9
			c-6.2-24.4-0.3-45.5,15-60.8C51.5,102.6,40.2,91.5,29.9,77.5z"/>
		<path class="st2" d="M43.1,76.1C28.8,57.3,18.9,40.7,23.2,37.5c4.2-3.1,17.6,10.7,31.9,29.5C64,78.7,70.8,89.8,73.9,97.2
			c-2.5,1.5-4.8,3.2-7,4.9C60.6,97.1,51.8,87.7,43.1,76.1z"/>
		<path class="st2" d="M130.5,28.8c-2.8,7.7-4.6,45.9-2.5,52.4l5.2,0.6c1.7-3.7,10.8-43,10-49.2L130.5,28.8z"/>
		<circle cx="151.3" cy="132.8" r="7.2"/>
		<circle cx="89.3" cy="148.7" r="7.2"/>
		<g>
			<path class="st1" d="M103,175.9c4.4,11.9,20.8,12.7,34.9,7.9c14.3-4.9,23.8-15.7,19.4-27.5c-4.4-11.9-17.5-15.7-32.6-11.1
				C109.7,149.6,98.6,164,103,175.9z"/>
			<g>
				<path class="st3" d="M124.4,158c0.8,0.9,2.8,2,4.9,1.2c2.1-0.7,2.5-2.7,2.6-3.9c0.2-1.2-0.6-2.4-4.6-1
					C123.2,155.7,123.5,156.9,124.4,158z"/>
				<path class="st4" d="M145.8,156.8c4.6,5.6-10.3,15.4-16.5,2.4c4.1,15.4-16.4,14.5-16.5,7.2"/>
			</g>
		</g>
	</g>
	<g>
		
			<ellipse transform="matrix(0.6377 -0.7702 0.7702 0.6377 -146.7154 239.7652)" class="st0" cx="181.5" cy="275.9" rx="31.9" ry="19.3"/>
		<path class="st2" d="M195.5,266c0.6-3.6-0.1-5.7-0.6-6.2c-0.5-0.4-2.6-0.7-5.8,0.4c-4.7,1.6-9.8,5.4-13.9,10.4
			c-4,4.8-6.7,10.3-7.5,15.2c-0.6,3.6,0.1,5.7,0.6,6.2c1.6,1.4,11-0.2,19.7-10.8C191.9,276.3,194.7,270.8,195.5,266
			C195.5,266,195.5,266,195.5,266z"/>
	</g>
</g>
</svg>
