<?xml version="1.0" encoding="utf-8"?>
<!-- Generator: Adobe Illustrator 22.0.1, SVG Export Plug-In . SVG Version: 6.00 Build 0)  -->
<svg version="1.1" id="Layer_1" xmlns="http://www.w3.org/2000/svg" xmlns:xlink="http://www.w3.org/1999/xlink" x="0px" y="0px"
	 viewBox="0 0 211 334.7" style="enable-background:new 0 0 211 334.7;" xml:space="preserve">
<style type="text/css">
	.st0{fill:#B3B3B3;stroke:#8E8E8E;stroke-miterlimit:10;}
	.st1{fill:#FFFAD4;}
	.st2{fill:#FFD9E5;}
	.st3{stroke:#000000;stroke-width:3;stroke-miterlimit:10;}
	.st4{fill:none;stroke:#000000;stroke-width:3;stroke-miterlimit:10;}
</style>
<g>
	
		<ellipse transform="matrix(0.7776 -0.6288 0.6288 0.7776 -175.6044 121.2966)" class="st0" cx="83.7" cy="308.9" rx="28.9" ry="17.5"/>
	<g id="body">
		<circle class="st0" cx="64.5" cy="274.9" r="13.1"/>
		<path class="st0" d="M40.1,211.5c1.4-1.4,13.3,2.7,22.5,1.2c8.6-1.3,18-8.7,20.8-8.3c10-11.5,23.2-17.2,36.7-17.1
			c14.2,0.2,25.2,2.3,33.9,7c0.4-1.9,1.3-3.3,2.9-4.2c1.4-1.3,13.4,2.4,22.5,0.9c9.1-1.4,19.2-9.4,21-7.7c2.8,0.8,4.6,3.1,5.1,6.7
			c1.5,9.8-8.8,19.5-23.1,21.6c-3.9,0.6-7.6,0.6-11.1,0c4.6,7.9,8,18.1,10.9,30.9c11,50.1-8,62.1-48.7,65.6
			c-40.7,3.5-70.3-9.7-68.5-50.6c0.4-8.6,1.5-16.5,3.4-23.5c-1.1,0.3-2.2,0.5-3.4,0.7c-14.4,2.2-27-4.4-28.2-14.9
			C36.3,215.9,37.5,213.1,40.1,211.5z"/>
		<path class="st1" d="M123.4,205.3c29.6-5.1,39.2,14.5,44.1,36.4c4.5,20.1,0,42.4-27.2,46.4c-29.3,4.3-42.2-13.1-44.2-33.4
			C93.9,232.7,96.5,210,123.4,205.3z"/>
	</g>
	<g id="rabbit_head">
		<path id="ear" class="st0" d="M62.6,110.6c-15.3,15.3-21.2,36.4-15,60.8c9.6,37.8,52.8,45.5,91.7,34.9
			c37.6-10.3,61-33.6,50.4-71.1c-7-24.5-25.2-40.4-47-46.2c2.6-10.7,6.4-42.1,7-53c53.4-8.5-8.8-42.1-27.6-30.3
			c-13.5,8.5-7.5,64-4.4,80.9c-5.3,0.4-10.7,1.3-16,2.7c-6.8,1.9-13.1,4.2-18.8,7C79.7,85.2,72.2,71,61.6,56.7
			C42.2,30.6,27.7,8,11.4,20.6c-18.4,14,0.6,32.3,20,58.5C41.8,93.1,53,104.2,62.6,110.6z"/>
		<path class="st2" d="M68.4,103.6c2.2-1.7,4.5-3.4,7-4.9c-3-7.3-9.8-18.5-18.7-30.2C42.4,49.7,29,35.9,24.8,39
			c-4.4,3.3,5.5,19.9,19.8,38.7C53.4,89.3,62.1,98.7,68.4,103.6z"/>
		<path class="st2" d="M144.8,34.2c0.8,6.2-8.3,45.5-10,49.2l-5.2-0.6c-2.1-6.5-0.3-44.7,2.5-52.4L144.8,34.2z"/>
		<circle cx="152.9" cy="134.4" r="7.2"/>
		<circle cx="90.9" cy="150.3" r="7.2"/>
		<g>
			<path class="st1" d="M126.3,146.8c15.1-4.6,28.2-0.7,32.6,11.1s-5.1,22.6-19.4,27.5c-14.1,4.8-30.5,4-34.9-7.9
				S111.3,151.2,126.3,146.8z"/>
			<g>
				<path class="st3" d="M128.9,155.9c4-1.4,4.8-0.2,4.6,1c-0.1,1.2-0.5,3.1-2.6,3.9c-2.1,0.8-4.1-0.3-4.9-1.2
					C125,158.5,124.8,157.3,128.9,155.9z"/>
				<path class="st4" d="M114.4,168c0.1,7.3,20.6,8.2,16.5-7.2c6.2,13,21.1,3.2,16.5-2.4"/>
			</g>
		</g>
	</g>
	<g>
		
			<ellipse transform="matrix(0.6377 -0.7703 0.7703 0.6377 -147.406 241.5285)" class="st0" cx="183.1" cy="277.5" rx="31.9" ry="19.3"/>
		<path class="st2" d="M197,267.6c-0.8,4.8-3.5,10.3-7.5,15.2c-8.7,10.6-18.1,12.2-19.7,10.8c-0.5-0.5-1.2-2.6-0.6-6.2
			c0.8-4.9,3.5-10.4,7.5-15.2c4.1-5,9.2-8.8,13.9-10.4c3.2-1.1,5.3-0.8,5.8-0.4C196.9,261.9,197.6,264,197,267.6L197,267.6z"/>
	</g>
</g>
</svg>
