<?xml version="1.0" encoding="utf-8"?>
<!-- Generator: Adobe Illustrator 22.0.1, SVG Export Plug-In . SVG Version: 6.00 Build 0)  -->
<svg version="1.1" id="dance" xmlns="http://www.w3.org/2000/svg" xmlns:xlink="http://www.w3.org/1999/xlink" x="0px" y="0px"
	 viewBox="0 0 210.1 334" style="enable-background:new 0 0 210.1 334;" xml:space="preserve">
<style type="text/css">
	.st0{fill:#B3B3B3;stroke:#8E8E8E;stroke-miterlimit:10;}
	.st1{fill:#FFFAD4;}
	.st2{fill:#FFD9E5;}
	.st3{stroke:#000000;stroke-width:3;stroke-miterlimit:10;}
	.st4{fill:none;stroke:#000000;stroke-width:3;stroke-miterlimit:10;}
</style>
<g>
	<path class="st0" d="M53.1,195.9c-0.6-1.8-12.9-4.4-20.2-10c-7.3-5.6-12.3-17.4-14.7-16.9c-2.9-0.6-5.5,0.5-7.7,3.4
		c-6,7.8-1.6,21.3,9.8,30.1c11.5,8.8,25.6,9.5,31.6,1.7C54.2,201.2,54.6,198.4,53.1,195.9z"/>
	
		<ellipse transform="matrix(0.6288 -0.7776 0.7776 0.6288 -191.7641 212.8354)" class="st0" cx="127" cy="307.3" rx="17.5" ry="28.9"/>
	<g id="body">
		<circle class="st0" cx="146.2" cy="273.3" r="13.1"/>
		<path class="st0" d="M145.6,256.1c1.8,40.9-27.8,54.1-68.5,50.6s-59.7-15.5-48.7-65.6c9-40.6,24.2-54.7,62.2-55.3
			C118,185.5,143.6,209,145.6,256.1z"/>
		<path class="st1" d="M114.6,253.1c-2,20.3-14.9,37.7-44.2,33.4c-27.2-4-31.7-26.3-27.2-46.4c4.9-21.9,14.5-41.5,44.1-36.4
			C114.2,208.4,116.8,231.1,114.6,253.1z"/>
	</g>
	<path class="st0" d="M169.6,187.9c5.6,8.9,0,22-12.6,29.3c-12.6,7.3-27.3,6-33-2.9c-2-3.3-2.2-6.3-0.6-8.8
		c0.2-2.6,13.6-2.4,21.7-7.1c8.1-4.6,14.8-15.2,16.7-15C164.8,183,167.5,184.5,169.6,187.9z"/>
	<g id="rabbit_head">
		<path class="st0" d="M179.3,77.5c19.4-26.2,38.4-44.5,20-58.5C183,6.4,168.5,29,149.1,55.1c-10.6,14.3-18.1,28.5-21.3,39.6
			c-5.7-2.8-12-5.1-18.8-7c-5.3-1.4-10.7-2.3-16-2.7c3.1-16.9,9.1-72.4-4.4-80.9C69.8-7.7,7.6,25.9,61,34.4c0.6,10.9,4.4,42.3,7,53
			c-21.8,5.8-40,21.7-47,46.2c-10.6,37.5,12.8,60.8,50.4,71.1c38.9,10.6,82.1,2.9,91.7-34.9c6.2-24.4,0.3-45.5-15-60.8
			C157.7,102.6,168.9,91.5,179.3,77.5z"/>
		<path class="st2" d="M166.1,76.1c14.3-18.8,24.2-35.4,19.8-38.7c-4.2-3.1-17.6,10.7-31.9,29.5c-8.9,11.7-15.7,22.9-18.7,30.2
			c2.5,1.5,4.8,3.2,7,4.9C148.6,97.1,157.3,87.7,166.1,76.1z"/>
		<path class="st2" d="M78.6,28.8c2.8,7.7,4.6,45.9,2.5,52.4l-5.2,0.6c-1.7-3.7-10.8-43-10-49.2L78.6,28.8z"/>
		<circle cx="57.8" cy="132.8" r="7.2"/>
		<circle cx="119.8" cy="148.7" r="7.2"/>
		<g>
			<path class="st1" d="M106.1,175.9c-4.4,11.9-20.8,12.7-34.9,7.9c-14.3-4.9-23.8-15.7-19.4-27.5s17.5-15.7,32.6-11.1
				C99.4,149.6,110.5,164,106.1,175.9z"/>
			<g>
				<path class="st3" d="M84.7,158c-0.8,0.9-2.8,2-4.9,1.2s-2.5-2.7-2.6-3.9c-0.2-1.2,0.6-2.4,4.6-1C85.9,155.7,85.7,156.9,84.7,158
					z"/>
				<path class="st4" d="M63.3,156.8c-4.6,5.6,10.3,15.4,16.5,2.4c-4.1,15.4,16.4,14.5,16.5,7.2"/>
			</g>
		</g>
	</g>
	<g>
		
			<ellipse transform="matrix(0.7703 -0.6377 0.6377 0.7703 -169.5899 80.9884)" class="st0" cx="27.6" cy="275.9" rx="19.3" ry="31.9"/>
		<path class="st2" d="M13.7,266c-0.6-3.6,0.1-5.7,0.6-6.2c0.5-0.4,2.6-0.7,5.8,0.4c4.7,1.6,9.8,5.4,13.9,10.4
			c4,4.8,6.7,10.3,7.5,15.2c0.6,3.6-0.1,5.7-0.6,6.2c-1.6,1.4-11-0.2-19.7-10.8C17.2,276.3,14.5,270.8,13.7,266L13.7,266z"/>
	</g>
</g>
</svg>
