<?xml version="1.0" encoding="utf-8"?>
<!-- Generator: Adobe Illustrator 22.0.1, SVG Export Plug-In . SVG Version: 6.00 Build 0)  -->
<svg version="1.1" id="Layer_1" xmlns="http://www.w3.org/2000/svg" xmlns:xlink="http://www.w3.org/1999/xlink" x="0px" y="0px"
	 viewBox="0 0 214.3 332.3" style="enable-background:new 0 0 214.3 332.3;" xml:space="preserve">
<style type="text/css">
	.st0{fill:#B3B3B3;stroke:#8E8E8E;stroke-miterlimit:10;}
	.st1{fill:#FFFAD4;}
	.st2{fill:#FFD9E5;}
	.st3{stroke:#000000;stroke-width:3;stroke-miterlimit:10;}
	.st4{fill:none;stroke:#000000;stroke-width:3;stroke-miterlimit:10;}
</style>
<g>
	
		<ellipse transform="matrix(0.6288 -0.7776 0.7776 0.6288 -191.6997 212.5296)" class="st0" cx="126.7" cy="307" rx="17.5" ry="28.9"/>
	<g id="body">
		<circle class="st0" cx="145.9" cy="273.1" r="13.1"/>
		<path class="st0" d="M169.3,187.7c-2.1-3.5-4.8-5-7.8-4.6c-1.9-0.2-8.7,10.5-16.7,15c-5.2,3-12.6,4-17.2,5
			c-10.1-11.9-23.4-17.8-37.2-17.6c-15.9,0.3-27.8,2.9-36.9,8.8c-4.5-1.4-11.8-3.2-17-6.6c-7.7-5-13.6-16.4-16-15.7
			c-2.9-0.4-5.5,0.9-7.4,4c-5.4,8.3,0,21.4,12.1,29.2c4.4,2.9,9.1,4.6,13.6,5.3c-4.4,7.8-7.8,17.8-10.5,30.3
			c-11,50.1,8,62.1,48.7,65.6c40.7,3.5,70.3-9.7,68.5-50.6c-0.6-13.3-3-24.7-6.8-34.2c5.8,0.3,12.2-1.2,18.2-4.7
			C169.3,209.7,174.9,196.7,169.3,187.7z"/>
		<path class="st1" d="M114.3,252.9c-2,20.3-14.9,37.7-44.2,33.4c-27.2-4-31.7-26.3-27.2-46.4c4.9-21.9,14.5-41.5,44.1-36.4
			C113.9,208.2,116.5,230.9,114.3,252.9z"/>
	</g>
	<g id="rabbit_head">
		<path class="st0" d="M179,77.3c19.4-26.2,45.7-40.6,27.3-54.6c-16.3-12.6-38.1,6.1-57.5,32.2c-10.6,14.3-18.1,28.5-21.3,39.6
			c-5.7-2.8-12-5.1-18.8-7c-5.3-1.4-10.7-2.3-16-2.7c3.1-16.9,0.5-71.4-13-79.9C60.9-6.9-1.3,26.7,52.1,35.2
			c0.6,10.9,13,41.3,15.6,52c-21.8,5.8-40,21.7-47,46.2c-10.6,37.5,12.8,60.8,50.4,71.1c38.9,10.6,82.1,2.9,91.7-34.9
			c6.2-24.4,0.3-45.5-15-60.8C157.4,102.4,168.6,91.3,179,77.3z"/>
		<path class="st2" d="M165.8,75.9c14.3-18.8,28.5-34.2,24.1-37.5c-4.2-3.1-21.9,9.5-36.2,28.3C144.8,78.4,138,89.6,135,96.9
			c2.5,1.5,4.8,3.2,7,4.9C148.3,96.9,157,87.5,165.8,75.9z"/>
		<path class="st2" d="M73.6,29c2.8,7.7,9.3,45.5,7.2,52l-5.2,0.6C73.9,77.9,60.1,39,60.9,32.8L73.6,29z"/>
		<circle cx="57.5" cy="132.6" r="7.2"/>
		<circle cx="119.5" cy="148.5" r="7.2"/>
		<g>
			<path class="st1" d="M105.8,175.7c-4.4,11.9-20.8,12.7-34.9,7.9c-14.3-4.9-23.8-15.7-19.4-27.5S69,140.4,84.1,145
				C99.1,149.4,110.2,163.8,105.8,175.7z"/>
			<g>
				<path class="st3" d="M84.4,157.8c-0.8,0.9-2.8,2-4.9,1.2s-2.5-2.7-2.6-3.9c-0.2-1.2,0.6-2.4,4.6-1
					C85.6,155.5,85.4,156.7,84.4,157.8z"/>
				<path class="st4" d="M63,156.6c-4.6,5.6,10.3,15.4,16.5,2.4c-4.1,15.4,16.4,14.5,16.5,7.2"/>
			</g>
		</g>
	</g>
	<g>
		
			<ellipse transform="matrix(0.7703 -0.6377 0.6377 0.7703 -169.5156 80.754)" class="st0" cx="27.3" cy="275.6" rx="19.3" ry="31.9"/>
		<path class="st2" d="M13.4,265.8c-0.6-3.6,0.1-5.7,0.6-6.2c0.5-0.4,2.6-0.7,5.8,0.4c4.7,1.6,9.8,5.4,13.9,10.4
			c4,4.8,6.7,10.3,7.5,15.2c0.6,3.6-0.1,5.7-0.6,6.2c-1.6,1.4-11-0.2-19.7-10.8C16.9,276.1,14.2,270.6,13.4,265.8L13.4,265.8z"/>
	</g>
</g>
</svg>
