<?xml version="1.0" encoding="utf-8"?>
<!-- Generator: Adobe Illustrator 22.0.1, SVG Export Plug-In . SVG Version: 6.00 Build 0)  -->
<svg version="1.1" id="Layer_1" xmlns="http://www.w3.org/2000/svg" xmlns:xlink="http://www.w3.org/1999/xlink" x="0px" y="0px"
	 viewBox="0 0 214.3 332.3" style="enable-background:new 0 0 214.3 332.3;" xml:space="preserve">
<style type="text/css">
	.st0{fill:#B3B3B3;stroke:#8E8E8E;stroke-miterlimit:10;}
	.st1{fill:#FFFAD4;}
	.st2{fill:#FFD9E5;}
	.st3{stroke:#000000;stroke-width:3;stroke-miterlimit:10;}
	.st4{fill:none;stroke:#000000;stroke-width:3;stroke-miterlimit:10;}
</style>
<g>
	
		<ellipse transform="matrix(0.7776 -0.6288 0.6288 0.7776 -173.503 123.5846)" class="st0" cx="87.9" cy="307" rx="28.9" ry="17.5"/>
	<g id="body">
		<circle class="st0" cx="68.8" cy="273.1" r="13.1"/>
		<path class="st0" d="M45.4,187.7c2.1-3.5,4.8-5,7.8-4.6c1.9-0.2,8.7,10.5,16.7,15c5.2,3,12.6,4,17.2,5
			c10.1-11.9,23.4-17.8,37.2-17.6c15.9,0.3,27.8,2.9,36.9,8.8c4.5-1.4,11.8-3.2,17-6.6c7.7-5,13.6-16.4,16-15.7
			c2.9-0.4,5.5,0.9,7.4,4c5.4,8.3,0,21.4-12.1,29.2c-4.4,2.9-9.1,4.6-13.6,5.3c4.4,7.8,7.8,17.8,10.5,30.3c11,50.1-8,62.1-48.7,65.6
			c-40.7,3.5-70.3-9.7-68.5-50.6c0.6-13.3,3-24.7,6.8-34.2C70.5,222,64,220.5,58,217C45.4,209.7,39.7,196.7,45.4,187.7z"/>
		<path class="st1" d="M127.7,203.5c29.6-5.1,39.2,14.5,44.1,36.4c4.5,20.1,0,42.4-27.2,46.4c-29.3,4.3-42.2-13.1-44.2-33.4
			C98.2,230.9,100.8,208.2,127.7,203.5z"/>
	</g>
	<g id="rabbit_head">
		<path class="st0" d="M66.9,108.8c-15.3,15.3-21.2,36.4-15,60.8c9.6,37.8,52.8,45.5,91.7,34.9c37.6-10.3,61-33.6,50.4-71.1
			c-7-24.5-25.2-40.4-47-46.2c2.6-10.7,15-41.1,15.6-52C216,26.7,153.8-6.9,135,4.9c-13.5,8.5-16.1,63-13,79.9
			c-5.3,0.4-10.7,1.3-16,2.7c-6.8,1.9-13.1,4.2-18.8,7C84,83.4,76.5,69.2,65.9,54.9C46.5,28.8,24.7,10.1,8.4,22.7
			c-18.4,14,7.9,28.4,27.3,54.6C46.1,91.3,57.3,102.4,66.9,108.8z"/>
		<path class="st2" d="M72.7,101.8c2.2-1.7,4.5-3.4,7-4.9c-3-7.3-9.8-18.5-18.7-30.2C46.7,47.9,29,35.2,24.8,38.3
			c-4.4,3.3,9.8,18.7,24.1,37.5C57.7,87.5,66.4,96.9,72.7,101.8z"/>
		<path class="st2" d="M153.7,32.8c0.8,6.2-13,45.1-14.7,48.8l-5.2-0.6c-2.1-6.5,4.4-44.3,7.2-52L153.7,32.8z"/>
		<circle cx="157.2" cy="132.6" r="7.2"/>
		<circle cx="95.2" cy="148.5" r="7.2"/>
		<g>
			<path class="st1" d="M130.6,145c15.1-4.6,28.2-0.7,32.6,11.1c4.4,11.8-5.1,22.6-19.4,27.5c-14.1,4.8-30.5,4-34.9-7.9
				S115.6,149.4,130.6,145z"/>
			<g>
				<path class="st3" d="M133.2,154.1c4-1.4,4.8-0.2,4.6,1c-0.1,1.2-0.5,3.1-2.6,3.9c-2.1,0.8-4.1-0.3-4.9-1.2
					C129.3,156.7,129.1,155.5,133.2,154.1z"/>
				<path class="st4" d="M118.7,166.2c0.1,7.3,20.6,8.2,16.5-7.2c6.2,13,21.1,3.2,16.5-2.4"/>
			</g>
		</g>
	</g>
	<g>
		
			<ellipse transform="matrix(0.6377 -0.7703 0.7703 0.6377 -144.4471 244.1672)" class="st0" cx="187.4" cy="275.6" rx="31.9" ry="19.3"/>
		<path class="st2" d="M201.3,265.8c-0.8,4.8-3.5,10.3-7.5,15.2c-8.7,10.6-18.1,12.2-19.7,10.8c-0.5-0.5-1.2-2.6-0.6-6.2
			c0.8-4.9,3.5-10.4,7.5-15.2c4.1-5,9.2-8.8,13.9-10.4c3.2-1.1,5.3-0.8,5.8-0.4C201.2,260.1,201.9,262.2,201.3,265.8L201.3,265.8z"
			/>
	</g>
</g>
</svg>
