<?xml version="1.0" encoding="utf-8"?>
<!-- Generator: Adobe Illustrator 22.0.1, SVG Export Plug-In . SVG Version: 6.00 Build 0)  -->
<svg version="1.1" id="Layer_1" xmlns="http://www.w3.org/2000/svg" xmlns:xlink="http://www.w3.org/1999/xlink" x="0px" y="0px"
	 viewBox="0 0 211 334.7" style="enable-background:new 0 0 211 334.7;" xml:space="preserve">
<style type="text/css">
	.st0{fill:#B3B3B3;stroke:#8E8E8E;stroke-miterlimit:10;}
	.st1{fill:#FFFAD4;}
	.st2{fill:#FFD9E5;}
	.st3{stroke:#000000;stroke-width:3;stroke-miterlimit:10;}
	.st4{fill:none;stroke:#000000;stroke-width:3;stroke-miterlimit:10;}
</style>
<g>
	
		<ellipse transform="matrix(0.6288 -0.7776 0.7776 0.6288 -192.4587 214.5925)" class="st0" cx="128.5" cy="308.9" rx="17.5" ry="28.9"/>
	<g id="body">
		<circle class="st0" cx="147.7" cy="274.9" r="13.1"/>
		<path class="st0" d="M172.1,211.5c-1.4-1.4-13.3,2.7-22.5,1.2c-8.6-1.3-18-8.7-20.8-8.3c-10-11.5-23.2-17.2-36.7-17.1
			c-14.2,0.2-25.2,2.3-33.9,7c-0.4-1.9-1.3-3.3-2.9-4.2c-1.4-1.3-13.4,2.4-22.5,0.9c-9.1-1.4-19.2-9.4-21-7.7
			c-2.8,0.8-4.6,3.1-5.1,6.7c-1.5,9.8,8.8,19.5,23.1,21.6c3.9,0.6,7.6,0.6,11.1,0c-4.6,7.9-8,18.1-10.9,30.9
			c-11,50.1,8,62.1,48.7,65.6c40.7,3.5,70.3-9.7,68.5-50.6c-0.4-8.6-1.5-16.5-3.4-23.5c1.1,0.3,2.2,0.5,3.4,0.7
			c14.4,2.2,27-4.4,28.2-14.9C175.8,215.9,174.7,213.1,172.1,211.5z"/>
		<path class="st1" d="M116.1,254.7c-2,20.3-14.9,37.7-44.2,33.4c-27.2-4-31.7-26.3-27.2-46.4c4.9-21.9,14.5-41.5,44.1-36.4
			C115.7,210,118.3,232.7,116.1,254.7z"/>
	</g>
	<g id="rabbit_head">
		<path id="ear" class="st0" d="M180.8,79.1c19.4-26.2,38.4-44.5,20-58.5C184.5,8,170,30.6,150.6,56.7C140,71,132.5,85.2,129.3,96.3
			c-5.7-2.8-12-5.1-18.8-7c-5.3-1.4-10.7-2.3-16-2.7c3.1-16.9,9.1-72.4-4.4-80.9C71.3-6.1,9.1,27.5,62.5,36c0.6,10.9,4.4,42.3,7,53
			c-21.8,5.8-40,21.7-47,46.2c-10.6,37.5,12.8,60.8,50.4,71.1c38.9,10.6,82.1,2.9,91.7-34.9c6.2-24.4,0.3-45.5-15-60.8
			C159.2,104.2,170.4,93.1,180.8,79.1z"/>
		<path class="st2" d="M167.6,77.7c14.3-18.8,24.2-35.4,19.8-38.7c-4.2-3.1-17.6,10.7-31.9,29.5c-8.9,11.7-15.7,22.9-18.7,30.2
			c2.5,1.5,4.8,3.2,7,4.9C150.1,98.7,158.8,89.3,167.6,77.7z"/>
		<path class="st2" d="M80.1,30.4c2.8,7.7,4.6,45.9,2.5,52.4l-5.2,0.6c-1.7-3.7-10.8-43-10-49.2L80.1,30.4z"/>
		<circle cx="59.3" cy="134.4" r="7.2"/>
		<circle cx="121.3" cy="150.3" r="7.2"/>
		<g>
			<path class="st1" d="M107.6,177.5c-4.4,11.9-20.8,12.7-34.9,7.9c-14.3-4.9-23.8-15.7-19.4-27.5s17.5-15.7,32.6-11.1
				C100.9,151.2,112,165.6,107.6,177.5z"/>
			<g>
				<path class="st3" d="M86.2,159.6c-0.8,0.9-2.8,2-4.9,1.2s-2.5-2.7-2.6-3.9c-0.2-1.2,0.6-2.4,4.6-1
					C87.4,157.3,87.2,158.5,86.2,159.6z"/>
				<path class="st4" d="M64.8,158.4c-4.6,5.6,10.3,15.4,16.5,2.4c-4.1,15.4,16.4,14.5,16.5,7.2"/>
			</g>
		</g>
	</g>
	<g>
		
			<ellipse transform="matrix(0.7703 -0.6377 0.6377 0.7703 -170.2711 82.3094)" class="st0" cx="29.1" cy="277.5" rx="19.3" ry="31.9"/>
		<path class="st2" d="M15.2,267.6c-0.6-3.6,0.1-5.7,0.6-6.2c0.5-0.4,2.6-0.7,5.8,0.4c4.7,1.6,9.8,5.4,13.9,10.4
			c4,4.8,6.7,10.3,7.5,15.2c0.6,3.6-0.1,5.7-0.6,6.2c-1.6,1.4-11-0.2-19.7-10.8C18.7,277.9,16,272.4,15.2,267.6L15.2,267.6z"/>
	</g>
</g>
</svg>
