<?xml version="1.0" encoding="utf-8"?>
<!-- Generator: Adobe Illustrator 22.0.1, SVG Export Plug-In . SVG Version: 6.00 Build 0)  -->
<svg version="1.1" id="Layer_1" xmlns="http://www.w3.org/2000/svg" xmlns:xlink="http://www.w3.org/1999/xlink" x="0px" y="0px"
	 viewBox="0 0 364.2 495.2" style="enable-background:new 0 0 364.2 495.2;" xml:space="preserve">
<style type="text/css">
	.st0{fill:#5CB15D;stroke:#5CB15D;stroke-miterlimit:10;}
	.st1{fill:#F09F1C;}
	.st2{fill:#89521C;}
	.st3{fill:#CE9B6E;}
</style>
<title>carrothouse</title>
<g id="carrot_house">
	<g id="carrot_house-2">
		<path class="st0" d="M33.1,111l-2-1.3c-13.1-3.3-16.4-9.1-8.1-18.1c4.1-12,10.9-12,20-1.8L45,91C33,32.9,63,51.8,66.2,73.3
			c10.1-12.7,19.1-2.6,15,15.5c30.1-28.2,21.2,1.8,12.4,21.9c6.3-0.6,19.8-5.5,12,14.8c20.4-17.4,27.1-10.8,24.8,12.7
			c0,0,8.7-11,16.7-1.2c11.6-32.4,36.6-20.7,51.2-8.3c2.3-5.5,3.1-13.3,15.9-2.4c-0.4-15.7,12.2-16.1,13.9-3.9l0.8-0.3
			c9.4-21.4,23.9-19.6,27.7-1.1l-1.4,0.8c2.9,9.8-5.3,16.4-22.8,12.4l-0.9,0.5c8.5,8.6,0.6,18.3-11.6,8.6c1,16.9-5.7,12.8-11.5,11.3
			c1,17.9-15.8,36.8-31.4,37.5c-6-5.1-12.9-9.6-18.7-15c-9.8,18.8-9.8,59.5-2.3,67.5l-18.1,0.4c9.2-15.1,3.8-54.8-4.4-68.7
			c-5.3,2.6-10.6,5.6-15.9,8.1c1.2-1.7,2.5-3.3,3.9-4.8c-12.5-2.5-6.8-15.3-6.8-15.3c-19.7,13.1-28.7,10.3-22.9-15.9
			c-14.3,16.3-16.2,2.1-18.7-3.7c-13.6,17.1-36,39.1-25.2-0.7c-14,12.1-27.2,8.9-20.7-6C6.9,145.2-23.8,127.6,33.1,111z"/>
		<path class="st1" d="M188.4,494.2c9.6-30,76.4-286.8-45.4-280.9c-112.8,5.4-34.1,253-22.5,282l31.9-0.5L188.4,494.2z"/>
	</g>
	<g id="window">
		<path class="st2" d="M120.9,360.2c0.3,16.5,2.8,33,7.4,48.8c6-0.5,12-0.8,18.1-1v-47.8H120.9z"/>
		<path class="st2" d="M146.4,301.6c-17.6,1.1-25.1,24.9-25.6,52.6h25.6V301.6z"/>
		<path class="st2" d="M152.4,407.9c7.3-0.1,14.8,0,22.3,0.2c3.1-15.8,4-31.9,2.9-47.9h-25.1V407.9z"/>
		<path class="st2" d="M177,354.2c-2.7-25.5-10.8-47.7-24.6-51.9v51.9L177,354.2z"/>
		<path class="st3" d="M152.4,354.2v6h25.1c-0.1-2-0.3-4-0.5-6H152.4z"/>
		<path class="st3" d="M146.4,354.2h-25.6c0,2,0,4,0,6h25.5L146.4,354.2z"/>
		<path class="st3" d="M146.4,409h6v-1.1c-2,0-4,0-6,0.1V409z"/>
		<path class="st3" d="M146.4,360.2V408c2-0.1,4-0.1,6-0.1v-47.7L146.4,360.2z"/>
		<path class="st3" d="M152.4,354.2v-51.9c-1.9-0.6-3.9-0.8-5.8-0.7h-0.1v52.6L152.4,354.2z"/>
		<rect x="146.4" y="354.2" class="st3" width="6" height="6"/>
	</g>
	<path class="st2" d="M141.8,280c22.1,1.6,44.2-0.9,65.4-7.4c3.7-1.1,2.1-6.9-1.6-5.8c-20.6,6.4-42.2,8.9-63.8,7.2
		C138,273.7,138,279.7,141.8,280L141.8,280z"/>
	<path class="st2" d="M176.3,303.4c12.3,1,24.7-1.1,36-6.3c3.5-1.6,0.5-6.8-3-5.2c-10.4,4.6-21.7,6.5-33,5.5
		C172.4,297.1,172.5,303.1,176.3,303.4z"/>
	<path class="st2" d="M187.1,326.4c8.6,1.5,17.5,1.1,26-1.2c3.7-1,2.1-6.8-1.6-5.8c-7.4,2.1-15.2,2.5-22.8,1.2
		C185,320,183.4,325.8,187.1,326.4L187.1,326.4z"/>
</g>
<g id="carrot_house_2">
	<g id="carrot_house-3">
		<path class="st0" d="M177,69.6l-1.7-1.1c-10.9-2.7-13.7-7.7-6.8-15.2c3.4-10,9.1-10,16.7-1.5l1.7,1c-10-48.5,15-32.7,17.7-14.7
			c8.4-10.6,15.9-2.2,12.5,12.9c25.1-23.6,17.7,1.5,10.4,18.2c5.2-0.5,16.5-4.6,10,12.3c17-14.5,22.7-9,20.7,10.6c0,0,7.3-9.2,14-1
			c9.6-27.1,30.6-17.3,42.8-6.9c1.9-4.6,2.5-11.1,13.3-2c-0.3-13.1,10.2-13.4,11.6-3.3l0.6-0.3c7.8-17.9,20-16.4,23.1-0.9l-1.2,0.7
			c2.5,8.1-4.4,13.7-19,10.3l-0.7,0.4c7.1,7.2,0.5,15.3-9.7,7.2c0.9,14.1-4.8,10.7-9.6,9.5c0.9,15-13.2,30.7-26.2,31.3
			c-5-4.3-10.8-8-15.6-12.5c-8.1,15.7-8.1,49.6-1.9,56.3l-15.1,0.4c7.6-12.6,3.1-45.8-3.7-57.4c-4.5,2.2-8.8,4.7-13.3,6.7
			c1-1.4,2.1-2.7,3.3-4c-10.4-2-5.7-12.8-5.7-12.8c-16.4,11-23.9,8.6-19-13.3c-11.9,13.6-13.6,1.8-15.6-3.1
			c-11.4,14.3-30,32.6-21-0.6c-11.7,10.2-22.7,7.5-17.2-5C155.1,98.1,129.5,83.4,177,69.6z"/>
		<path class="st1" d="M306.6,388.6c8-25,63.8-239.4-37.9-234.5c-94.1,4.5-28.5,211.2-18.8,235.4L306.6,388.6z"/>
	</g>
	<g id="window-2">
		<path class="st2" d="M250.2,276.8c0.3,13.8,2.4,27.5,6.2,40.8c5-0.4,10-0.7,15.1-0.8v-40H250.2z"/>
		<path class="st2" d="M271.6,227.9c-14.7,0.9-21,20.8-21.3,43.9h21.3V227.9z"/>
		<path class="st2" d="M276.5,316.5c6.1-0.1,12.3,0,18.6,0.2c2.6-13.2,3.4-26.6,2.4-40h-21L276.5,316.5z"/>
		<path class="st2" d="M297.1,271.8c-2.2-21.3-9-39.8-20.5-43.3v43.3H297.1z"/>
		<path class="st3" d="M276.5,271.8v5h21c-0.1-1.7-0.3-3.3-0.4-5H276.5z"/>
		<path class="st3" d="M271.6,271.8h-21.3c0,1.6,0,3.3,0,5h21.3L271.6,271.8z"/>
		<path class="st3" d="M271.6,317.5h5v-1c-1.7,0-3.3,0.1-5,0.1V317.5z"/>
		<path class="st3" d="M271.6,276.8v39.9c1.7,0,3.3-0.1,5-0.1v-39.8H271.6z"/>
		<path class="st3" d="M276.5,271.8v-43.3c-1.6-0.5-3.2-0.7-4.9-0.6h-0.1v43.9L276.5,271.8z"/>
		<rect x="271.6" y="271.8" class="st3" width="5" height="5"/>
	</g>
	<path class="st2" d="M267.8,210.3c18.5,1.3,37-0.8,54.7-6.2c3.7-1.1,2.1-6.9-1.6-5.8c-17.2,5.3-35.2,7.3-53.1,6
		C263.9,204,263.9,210,267.8,210.3L267.8,210.3z"/>
	<path class="st2" d="M296.5,229.8c10.4,0.8,20.8-1,30.3-5.3c3.5-1.6,0.5-6.7-3-5.2c-8.6,3.8-17.9,5.3-27.3,4.5
		C292.7,223.6,292.7,229.6,296.5,229.8L296.5,229.8z"/>
	<path class="st2" d="M305.4,249.1c7.3,1.3,14.8,0.9,21.9-1c3.7-1,2.1-6.8-1.6-5.8c-6.1,1.7-12.5,2-18.8,1
		C303.2,242.6,301.6,248.4,305.4,249.1L305.4,249.1z"/>
</g>
</svg>
