<svg id="Layer_1" data-name="Layer 1" xmlns="http://www.w3.org/2000/svg" viewBox="0 0 139.48 206"><defs><style>.cls-1{fill:#3f61b0;}.cls-2{fill:#e5e5e5;}.cls-3{fill:#e2526d;}.cls-4{fill:#3e3f56;}</style></defs><title>castle</title><g id="Castle"><path class="cls-1" d="M70.21,6.34C71.7,23.6,57.76,55.73,54.7,58.68h31C77.7,52.53,70.21,6.34,70.21,6.34Z" transform="translate(-0.87 -1.08)"/><rect class="cls-2" x="51.02" y="57.6" width="36.46" height="3.43"/><rect class="cls-2" x="15.71" y="120.32" width="19.7" height="1.85"/><path class="cls-1" d="M114.55,79.84c.43,5-6.36,26.34-8.39,28.29h16.77C118.59,104.81,114.55,79.84,114.55,79.84Z" transform="translate(-0.87 -1.08)"/><polygon class="cls-2" points="18.41 139.63 21.79 139.63 21.79 130.26 29.68 130.26 29.68 139.63 33.99 139.63 33.99 130.26 38.08 130.26 38.08 206 0 206 0 130.26 5.64 130.26 5.64 139.63 9.58 139.63 9.58 130.26 18.41 130.26 18.41 139.63"/><rect class="cls-2" x="30.52" y="158.81" width="105.15" height="47.19"/><path class="cls-3" d="M70.21,1.35c15.18-2.27,28.06,10.47,43.3,10-16.86,1.22-25.7-5.65-42.94-2.91Z" transform="translate(-0.87 -1.08)"/><rect class="cls-2" x="19.74" y="122.18" width="12.23" height="17.46"/><rect class="cls-2" x="107.38" y="108.9" width="12.02" height="18.93"/><polygon class="cls-2" points="130.87 117.15 134.7 117.15 134.7 136.91 97.54 136.91 97.54 117.15 102.83 117.15 102.64 127.83 106.29 127.83 106.47 117.15 114.3 117.15 114.48 127.83 118.31 127.83 118.13 117.73 126.69 117.15 126.87 127.13 131.06 127.13 130.87 117.15"/><polygon class="cls-2" points="58.14 61.03 58.27 89.19 57.65 115.67 80.96 115.67 80.96 61.03 58.14 61.03"/><polygon class="cls-2" points="101.16 122.73 101.16 102.19 93.35 102.19 93.35 112.46 88.21 112.46 88.21 102.19 74.49 102.19 74.49 112.46 67.39 112.46 67.39 102.19 54.91 102.19 54.91 112.46 48.7 112.46 48.7 102.19 39.62 102.19 39.62 122.18 101.16 122.73"/><rect class="cls-2" x="44.67" y="122.73" width="48.76" height="11.06"/><polygon class="cls-1" points="35.41 133.79 131.07 133.79 139.48 156.6 25.56 156.6 35.41 133.79"/><path class="cls-2" d="M45.54,123.81v22.25c.93,2.46,4.73,4.82,9,4.79a11,11,0,0,0,8.94-4.79V123.81Z" transform="translate(-0.87 -1.08)"/><path class="cls-1" d="M26.48,93.12c.43,5-6.36,26.34-8.38,28.29H34.86C30.53,118.08,26.48,93.12,26.48,93.12Z" transform="translate(-0.87 -1.08)"/><path class="cls-1" d="M54.83,75.5c.69,8.08-10.2,42.22-13.44,45.34H68.27C61.32,115.52,54.83,75.5,54.83,75.5Z" transform="translate(-0.87 -1.08)"/><rect class="cls-2" x="38.08" y="119.76" width="31.58" height="2.97"/><rect class="cls-2" x="27.46" y="156.91" width="111.39" height="1.9"/><rect class="cls-4" x="46.78" y="126.64" width="3.26" height="9.62"/><rect class="cls-4" x="23" y="125.38" width="3.26" height="9.62"/><rect class="cls-4" x="61.64" y="66.36" width="3.97" height="15.62"/><rect class="cls-4" x="73.48" y="66.36" width="3.97" height="15.62"/><rect class="cls-4" x="57.65" y="126.88" width="3.26" height="9.62"/><rect class="cls-4" x="114.49" y="110.86" width="3.26" height="9.62"/><g id="window1"><rect class="cls-4" x="106.97" y="161.77" width="6.52" height="5.92"/><rect class="cls-4" x="55.12" y="161.77" width="6.52" height="5.92"/><rect class="cls-4" x="90.09" y="172.32" width="6.52" height="5.92"/><rect class="cls-4" x="71.23" y="172.32" width="6.52" height="5.92"/><rect class="cls-4" x="106.97" y="172.32" width="6.52" height="5.92"/><rect class="cls-4" x="55.01" y="172.32" width="6.52" height="5.92"/><rect class="cls-4" x="72.26" y="161.15" width="6.52" height="5.92"/><rect class="cls-4" x="39.09" y="161.13" width="6.52" height="5.92"/><rect class="cls-4" x="6.97" y="146.81" width="6.52" height="5.92"/><rect class="cls-4" x="6.97" y="158.39" width="6.52" height="5.92"/><rect class="cls-4" x="19.74" y="158.39" width="6.52" height="5.92"/><rect class="cls-4" x="19.74" y="146.81" width="6.52" height="5.92"/><rect class="cls-4" x="39.09" y="172.32" width="6.52" height="5.92"/><rect class="cls-4" x="123.48" y="172.32" width="6.52" height="5.92"/><rect class="cls-4" x="123.48" y="161.77" width="6.52" height="5.92"/><rect class="cls-4" x="90.09" y="161.77" width="6.52" height="5.92"/></g><g id="flags"><path class="cls-3" d="M26.48,90.42c8.38-1.25,15.48,5.65,23.4,5.4-9.11.66-13.89-3-23.21-1.57Z" transform="translate(-0.87 -1.08)"/><path class="cls-3" d="M54.83,71.18c13.44-2,24.81,9.06,37.51,8.65-14.61,1.06-22.27-4.89-37.21-2.51Z" transform="translate(-0.87 -1.08)"/><path class="cls-3" d="M114.55,77.15c8.38-1.26,15.48,5.65,23.4,5.4-9.12.65-13.89-3.06-23.21-1.57Z" transform="translate(-0.87 -1.08)"/></g><rect class="cls-2" x="103.77" y="107.05" width="19.7" height="1.85"/></g></svg>