<?xml version="1.0" encoding="utf-8"?>
<!-- Generator: Adobe Illustrator 22.0.1, SVG Export Plug-In . SVG Version: 6.00 Build 0)  -->
<svg version="1.1" id="Layer_1" xmlns="http://www.w3.org/2000/svg" xmlns:xlink="http://www.w3.org/1999/xlink" x="0px" y="0px"
	 viewBox="0 0 187.8 473" style="enable-background:new 0 0 187.8 473;" xml:space="preserve">
<style type="text/css">
	.st0{fill:#3D3D3D;}
	.st1{fill:#EFE15B;stroke:#B3B3B3;stroke-miterlimit:10;}
	.st2{fill:#F5F5F5;stroke:#B3B3B3;stroke-miterlimit:10;}
</style>
<g id="EGG_x5F_RABBIT">
	<g id="right_x5F_foot">
		<path class="st0" d="M64.8,331.9c31.7,9.6,58.5,30.9,75,59.6c1.9,3.3-3.2,6.4-5.2,3c-15.7-27.3-41.3-47.6-71.5-56.8
			C59.5,336.5,61,330.7,64.8,331.9L64.8,331.9z"/>
		<path class="st1" d="M97.6,421.6c-8.3,14.5-10.2,27.1,4.3,35.4s24.5-3.7,32.8-18.2c8.3-14.5,6.3-50.2,6.3-50.2
			S105.9,407.1,97.6,421.6z"/>
	</g>
	<g id="left_x5F_foot">
		<path class="st0" d="M115.4,349c-3.6,32.9-19.5,63.2-44.6,84.8c-2.9,2.5-6.9-2-4-4.5c23.9-20.5,39.1-49.4,42.6-80.7
			C109.8,344.8,115.8,345.2,115.4,349L115.4,349z"/>
		<path class="st1" d="M49.1,386.9c-12.4-11.1-24.4-15.7-35.6-3.2c-11.2,12.4-1.6,24.7,10.9,35.9c12.4,11.2,47.7,16.8,47.7,16.8
			S61.5,398.1,49.1,386.9z"/>
	</g>
	<path id="Body" class="st2" d="M70.4,180.6c-8.3-15.9-15.6-32.2-21.9-48.8c-15.8-43.6-28.6-78.9-8.7-83.9
		c21.7-5.4,29,31.4,40.2,76.1c3.1,12.6,6.1,32.1,7.7,48.3c6.3-1.8,13-2.2,19.6-1.1c2.3-15.5,5.8-33.3,9.2-45.1
		c12.8-44.3,21.6-80.9,43.1-74.8c19.8,5.6,5.6,40.5-11.9,83.5c-6.2,14.8-13.3,29.4-21.2,43.5c32.9,19.8,53.7,73.5,53.7,107.9
		c0,42.9-32,65.7-79.8,65.7s-79.8-22.8-79.8-65.7C20.6,253.1,39.7,202,70.4,180.6z"/>
</g>
</svg>
