<?xml version="1.0" encoding="utf-8"?>
<!-- Generator: Adobe Illustrator 22.0.1, SVG Export Plug-In . SVG Version: 6.00 Build 0)  -->
<svg version="1.1" id="Layer_1" xmlns="http://www.w3.org/2000/svg" xmlns:xlink="http://www.w3.org/1999/xlink" x="0px" y="0px"
	 viewBox="0 0 228.5 452" style="enable-background:new 0 0 228.5 452;" xml:space="preserve">
<style type="text/css">
	.st0{fill:#3D3D3D;}
	.st1{fill:#EFE15B;stroke:#B3B3B3;stroke-miterlimit:10;}
	.st2{fill:#F5F5F5;stroke:#B3B3B3;stroke-miterlimit:10;}
</style>
<g id="EGG_x5F_RABBIT">
	<g id="right_x5F_foot">
		<path class="st0" d="M135.5,338.6c-14.1,30-39,53.4-69.7,65.7c-3.6,1.4-5.8-4.1-2.2-5.6c29.3-11.7,53.1-34,66.5-62.6
			C131.7,332.7,137.2,335,135.5,338.6L135.5,338.6z"/>
		<path class="st1" d="M42,358.1c-13.2-10.3-25.4-13.9-35.7-0.8c-10.3,13.1,0.1,24.7,13.3,35s48.8,13.5,48.8,13.5
			S55.1,368.4,42,358.1z"/>
	</g>
	<g id="left_x5F_foot">
		<path class="st0" d="M167.5,335.9c22.4,24.4,34.6,56.4,34.3,89.5c0,3.9-6,3.9-6,0c0.3-31.5-11.3-62-32.6-85.3
			C160.7,337.2,164.9,333,167.5,335.9L167.5,335.9z"/>
		<path class="st1" d="M152.3,410.6c-16.6,2-27.8,8-25.9,24.6s17.5,17.5,34.1,15.5s44.1-24.8,44.1-24.8S168.9,408.7,152.3,410.6z"/>
	</g>
	<path id="Body" class="st2" d="M114.9,148.8C106.6,131.1,99.3,113,93,94.5C77.2,46,64.4,6.6,84.3,1.1c21.7-6,29,35,40.2,84.8
		c3.1,14.1,6.1,35.8,7.7,53.8c6.3-2,13-2.4,19.6-1.3c2.3-17.2,5.8-37.1,9.2-50.2c12.8-49.3,21.6-90,43.1-83.3
		c19.8,6.2,5.6,45.1-11.9,93c-6.2,16.5-13.3,32.7-21.2,48.4c32.9,22.1,53.7,81.8,53.7,120.1c0,47.8-32,73.1-79.8,73.1
		s-79.8-25.4-79.8-73.1C65.1,229.5,84.2,172.6,114.9,148.8z"/>
</g>
</svg>
