<?xml version="1.0" encoding="utf-8"?>
<!-- Generator: Adobe Illustrator 22.0.1, SVG Export Plug-In . SVG Version: 6.00 Build 0)  -->
<svg version="1.1" xmlns="http://www.w3.org/2000/svg" xmlns:xlink="http://www.w3.org/1999/xlink" x="0px" y="0px"
	 viewBox="0 0 235.9 205.7" style="enable-background:new 0 0 235.9 205.7;" xml:space="preserve">
<style type="text/css">
	.st0{fill:#FDFFB6;}
	.st1{fill:url(#SVGID_1_);}
	.st2{fill:#F0BD1C;}
	.st3{fill:#FFB8F8;}
	.st4{fill:#FFF3F2;}
	.st5{fill:#F5F5F5;}
	.st6{fill:#7ADD7D;}
	.st7{fill:#F4ED95;}
	.st8{fill:#D86060;}
	.st9{fill:#3C61E5;}
	.st10{fill:#1E4FD6;}
	.st11{fill:#DCFFFF;}
	.st12{fill:none;stroke:#8C6239;stroke-width:6;stroke-miterlimit:10;}
</style>
<g id="Layer_1">
</g>
<g id="Layer_2">
	<g>
		<g id="flag_3">
			<path class="st0" d="M183.9,104c0-2.4,1.9-4.3,4.3-4.3c0.2,0,0.5,0,0.7,0.1l-18.8-19.1c-0.1,2.3-2,4.2-4.3,4.2
				c-2.4,0-4.3-1.9-4.3-4.3c0-2.4,1.9-4.3,4.3-4.3l-6.3-6.5c0.4,0.6,0.6,1.3,0.6,2.1c0,2.4-1.9,4.3-4.3,4.3s-4.3-1.9-4.3-4.3
				s1.9-4.3,4.3-4.3c0.8,0,1.5,0.2,2.2,0.6l-5.9-6l-34.5,31.8l12.8,15.1c0-2.4,1.9-4.3,4.3-4.3c2.4,0,4.3,1.9,4.3,4.3
				s-1.9,4.3-4.3,4.3c-0.2,0-0.5,0-0.7-0.1l6.8,8c0-0.2-0.1-0.5-0.1-0.7c0-2.4,1.9-4.3,4.3-4.3s4.3,1.9,4.3,4.3s-1.9,4.3-4.3,4.3
				c-0.5,0-1-0.1-1.4-0.3l6.7,8c0,0,0,0,0,0c0-2.4,1.9-4.3,4.3-4.3s4.3,1.9,4.3,4.3c0,0.1,0,0.2,0,0.2l8.7-8.1
				c-1.9-0.5-3.3-2.2-3.3-4.2c0-2.4,1.9-4.3,4.3-4.3c2.1,0,3.9,1.6,4.3,3.6l13.1-12.1C184.8,107,183.9,105.6,183.9,104z
				 M125.6,101.1c-2.4,0-4.3-1.9-4.3-4.3c0-2.4,1.9-4.3,4.3-4.3s4.3,1.9,4.3,4.3C130,99.2,128,101.1,125.6,101.1z M153.2,80
				c2.4,0,4.3,1.9,4.3,4.3s-1.9,4.3-4.3,4.3c-2.4,0-4.3-1.9-4.3-4.3S150.8,80,153.2,80z M140.6,80c2.4,0,4.3,1.9,4.3,4.3
				s-1.9,4.3-4.3,4.3s-4.3-1.9-4.3-4.3S138.2,80,140.6,80z M137.2,101.1c-2.4,0-4.3-1.9-4.3-4.3c0-2.4,1.9-4.3,4.3-4.3
				s4.3,1.9,4.3,4.3C141.5,99.2,139.6,101.1,137.2,101.1z M144.9,113.3c-2.4,0-4.3-1.9-4.3-4.3s1.9-4.3,4.3-4.3s4.3,1.9,4.3,4.3
				S147.3,113.3,144.9,113.3z M145.9,96.8c0-2.4,1.9-4.3,4.3-4.3s4.3,1.9,4.3,4.3c0,2.4-1.9,4.3-4.3,4.3S145.9,99.2,145.9,96.8z
				 M155.7,125.6c-2.4,0-4.3-1.9-4.3-4.3s1.9-4.3,4.3-4.3s4.3,1.9,4.3,4.3S158.1,125.6,155.7,125.6z M160,114.2
				c-2.4,0-4.3-1.9-4.3-4.3c0-2.4,1.9-4.3,4.3-4.3s4.3,1.9,4.3,4.3C164.4,112.3,162.4,114.2,160,114.2z M164.4,99.6
				c-2.4,0-4.3-1.9-4.3-4.3s1.9-4.3,4.3-4.3c2.4,0,4.3,1.9,4.3,4.3S166.8,99.6,164.4,99.6z M174.1,111c-2.4,0-4.3-1.9-4.3-4.3
				s1.9-4.3,4.3-4.3s4.3,1.9,4.3,4.3S176.5,111,174.1,111z M178.4,99.6c-2.4,0-4.3-1.9-4.3-4.3s1.9-4.3,4.3-4.3s4.3,1.9,4.3,4.3
				S180.8,99.6,178.4,99.6z"/>
			<linearGradient id="SVGID_1_" gradientUnits="userSpaceOnUse" x1="118.3642" y1="99.3343" x2="153.5487" y2="136.3136">
				<stop  offset="0" style="stop-color:#FDFFB6"/>
				<stop  offset="0.13" style="stop-color:#FCFAB3"/>
				<stop  offset="0.2944" style="stop-color:#F8EAAB"/>
				<stop  offset="0.4774" style="stop-color:#F2D09D"/>
				<stop  offset="0.6738" style="stop-color:#EAAC89"/>
				<stop  offset="0.8788" style="stop-color:#DF7E70"/>
				<stop  offset="0.9976" style="stop-color:#D86060"/>
			</linearGradient>
			<path class="st1" d="M154.1,137.2l0.3-0.3c-0.2,0-0.4,0-0.6-0.1L154.1,137.2z"/>
			<path class="st2" d="M125.6,92.4c-2.4,0-4.3,1.9-4.3,4.3c0,2.4,1.9,4.3,4.3,4.3s4.3-1.9,4.3-4.3C130,94.4,128,92.4,125.6,92.4z"
				/>
			<path class="st2" d="M140.6,88.7c2.4,0,4.3-1.9,4.3-4.3S143,80,140.6,80s-4.3,1.9-4.3,4.3S138.2,88.7,140.6,88.7z"/>
			<path class="st2" d="M154.6,96.8c0-2.4-1.9-4.3-4.3-4.3s-4.3,1.9-4.3,4.3c0,2.4,1.9,4.3,4.3,4.3S154.6,99.2,154.6,96.8z"/>
			<path class="st2" d="M153.2,88.7c2.4,0,4.3-1.9,4.3-4.3s-1.9-4.3-4.3-4.3c-2.4,0-4.3,1.9-4.3,4.3S150.8,88.7,153.2,88.7z"/>
			<circle class="st2" cx="137.2" cy="96.8" r="4.3"/>
			<path class="st2" d="M144.9,104.6c-2.4,0-4.3,1.9-4.3,4.3s1.9,4.3,4.3,4.3s4.3-1.9,4.3-4.3S147.3,104.6,144.9,104.6z"/>
			<path class="st2" d="M155.7,116.9c-2.4,0-4.3,1.9-4.3,4.3s1.9,4.3,4.3,4.3s4.3-1.9,4.3-4.3S158.1,116.9,155.7,116.9z"/>
			<path class="st2" d="M164.4,90.9c-2.4,0-4.3,1.9-4.3,4.3s1.9,4.3,4.3,4.3c2.4,0,4.3-1.9,4.3-4.3S166.8,90.9,164.4,90.9z"/>
			<path class="st2" d="M160,105.5c-2.4,0-4.3,1.9-4.3,4.3c0,2.4,1.9,4.3,4.3,4.3s4.3-1.9,4.3-4.3
				C164.4,107.5,162.4,105.5,160,105.5z"/>
			<path class="st2" d="M174.1,102.3c-2.4,0-4.3,1.9-4.3,4.3s1.9,4.3,4.3,4.3s4.3-1.9,4.3-4.3S176.5,102.3,174.1,102.3z"/>
			<path class="st2" d="M168.7,116.2c-2.4,0-4.3,1.9-4.3,4.3c0,2,1.4,3.7,3.3,4.2l5.4-4.9C172.6,117.8,170.8,116.2,168.7,116.2z"/>
			<path class="st2" d="M151.3,71.8c0,2.4,1.9,4.3,4.3,4.3s4.3-1.9,4.3-4.3c0-0.8-0.2-1.5-0.6-2.1l-1.6-1.6
				c-0.6-0.4-1.4-0.6-2.2-0.6C153.3,67.4,151.3,69.4,151.3,71.8z"/>
			<path class="st2" d="M161.5,80.5c0,2.4,1.9,4.3,4.3,4.3c2.4,0,4.3-1.9,4.3-4.2l-4.4-4.5C163.4,76.1,161.5,78.1,161.5,80.5z"/>
			<path class="st2" d="M178.4,90.9c-2.4,0-4.3,1.9-4.3,4.3s1.9,4.3,4.3,4.3s4.3-1.9,4.3-4.3S180.8,90.9,178.4,90.9z"/>
			<path class="st2" d="M188.9,99.7c-0.2,0-0.5-0.1-0.7-0.1c-2.4,0-4.3,1.9-4.3,4.3c0,1.6,0.9,3,2.2,3.8l5.6-5.2L188.9,99.7z"/>
			<path class="st2" d="M138.9,109c0-2.4-1.9-4.3-4.3-4.3c-2.4,0-4.3,1.9-4.3,4.3l3.6,4.3c0.2,0,0.5,0.1,0.7,0.1
				C137,113.3,138.9,111.4,138.9,109z"/>
			<path class="st2" d="M149.3,120.6c0-2.4-1.9-4.3-4.3-4.3s-4.3,1.9-4.3,4.3c0,0.2,0,0.5,0.1,0.7l2.9,3.4c0.4,0.2,0.9,0.3,1.4,0.3
				C147.3,124.9,149.3,123,149.3,120.6z"/>
			<path class="st2" d="M154.6,128.3c-2.4,0-4.3,1.9-4.3,4.3c0,0,0,0,0,0l3.6,4.2c0.2,0,0.4,0.1,0.6,0.1l4.4-4.1c0-0.1,0-0.2,0-0.2
				C158.9,130.2,157,128.3,154.6,128.3z"/>
		</g>
		<g id="Flag1">
			<path class="st3" d="M31.5,202c0,0.1,0,0.3-0.1,0.4c0,0.2-0.1,0.3-0.2,0.5l0.9-0.3c-0.1-0.1-0.2-0.1-0.3-0.2
				C31.8,202.2,31.6,202.1,31.5,202z"/>
			<path class="st3" d="M13.7,169l0.1,0.2c0-0.1,0-0.1,0.1-0.2C13.8,169,13.7,169,13.7,169z"/>
			<path class="st3" d="M62,159.2c-0.5-0.2-1-0.4-1.4-0.6c-0.1-0.1-0.2-0.2-0.4-0.3c0,0.1,0,0.3-0.1,0.4c-0.6,2.1-3.1,4.5-5.2,3.9
				c-2.1-0.6-3.1-3.9-2.5-6c0-0.1,0.1-0.3,0.2-0.4c-0.1,0-0.2,0-0.4,0c-2.2,0.1-5.7-1.8-5.8-4c-0.1-2.2,3.2-3.9,5.4-4
				c0.1,0,0.3,0,0.5,0c-0.1-0.1-0.1-0.2-0.2-0.3c-0.8-2.1-0.1-5.7,2-6.5c0.1,0,0.2-0.1,0.3-0.1l-2.9-7L7.7,151l3.5,10.4
				c0.7-0.2,1.3-0.4,1.9-0.4c0.1,0,0.3,0,0.5,0c-0.1-0.1-0.1-0.2-0.2-0.3c-0.8-2.1-0.1-5.7,2-6.5c2.1-0.8,4.7,1.6,5.5,3.7
				c0.1,0.1,0.1,0.3,0.1,0.5c0.1-0.1,0.2-0.2,0.3-0.3c1.7-1.4,5.5-1.6,6.8,0.1c1.4,1.7-0.1,4.7-1.8,6.1c-0.1,0.1-0.2,0.2-0.4,0.3
				c0.1,0.1,0.2,0.1,0.3,0.2c1.9,1.2,3.3,4.6,2.1,6.5c-1.2,1.9-4.7,1.4-6.5,0.2c-0.1-0.1-0.2-0.2-0.4-0.3c0,0.1,0,0.3-0.1,0.4
				c-0.6,2.1-3.1,4.5-5.2,3.9c-0.1,0-0.3-0.1-0.4-0.1l5.6,16.9c0.6-0.2,1.2-0.3,1.7-0.3c0.1,0,0.3,0,0.5,0c-0.1-0.1-0.1-0.2-0.2-0.3
				c-0.8-2.1-0.1-5.7,2-6.5c2.1-0.8,4.7,1.6,5.5,3.7c0.1,0.1,0.1,0.3,0.1,0.5c0.1-0.1,0.2-0.2,0.3-0.3c1.7-1.4,5.5-1.6,6.8,0.1
				c1.4,1.7-0.1,4.7-1.8,6.1c-0.1,0.1-0.2,0.2-0.4,0.3c0.1,0.1,0.2,0.1,0.3,0.2c1.3,0.8,2.3,2.7,2.5,4.3l26.3-10.1
				c-0.2-0.9-0.2-1.9,0-2.8c0-0.1,0.1-0.3,0.2-0.4c-0.1,0-0.2,0-0.4,0c-2.2,0.1-5.7-1.8-5.8-4c-0.1-2.2,3.2-3.9,5.4-4
				c0.1,0,0.3,0,0.5,0c-0.1-0.1-0.1-0.2-0.2-0.3c-0.8-2.1-0.1-5.7,2-6.5c0.1,0,0.2-0.1,0.3-0.1l6.2,14.9l0,0L62,159.2z"/>
			<path class="st4" d="M36.3,195.6c-0.1-0.1-0.2-0.1-0.3-0.2c0.2-0.1,0.3-0.2,0.4-0.3c1.7-1.4,3.2-4.4,1.8-6.1
				c-1.4-1.7-5.1-1.5-6.8-0.1c-0.1,0.1-0.2,0.2-0.3,0.3c0-0.2-0.1-0.3-0.1-0.5c-0.8-2.1-3.4-4.4-5.5-3.7c-2.1,0.8-2.8,4.4-2,6.5
				c0,0.1,0.1,0.2,0.2,0.3c-0.2,0-0.3,0-0.5,0c-0.5,0-1.1,0.1-1.7,0.3l4.3,12.8l5.6-2.1c0.1-0.2,0.1-0.3,0.2-0.5
				c0-0.1,0-0.2,0.1-0.4c0.1,0.1,0.3,0.2,0.4,0.3c0.1,0.1,0.2,0.1,0.3,0.2l6.6-2.5C38.6,198.2,37.5,196.4,36.3,195.6z"/>
			<path class="st4" d="M52.2,147.8c0,0.1,0.1,0.2,0.2,0.3c-0.2,0-0.3,0-0.5,0c-2.2,0.1-5.5,1.8-5.4,4c0.1,2.2,3.6,4.1,5.8,4
				c0.1,0,0.2,0,0.4,0c-0.1,0.2-0.1,0.3-0.2,0.4c-0.6,2.1,0.4,5.4,2.5,6c2.1,0.6,4.6-1.8,5.2-3.9c0-0.1,0-0.2,0.1-0.4
				c0.1,0.1,0.3,0.2,0.4,0.3c0.4,0.3,0.9,0.5,1.4,0.6l-7.5-18c-0.1,0-0.2,0-0.3,0.1C52.1,142.1,51.4,145.7,52.2,147.8z"/>
			<path class="st4" d="M66.9,171.9c-2.1,0.8-2.8,4.4-2,6.5c0,0.1,0.1,0.2,0.2,0.3c-0.2,0-0.3,0-0.5,0c-2.2,0.1-5.5,1.8-5.4,4
				c0.1,2.2,3.6,4.1,5.8,4c0.1,0,0.2,0,0.4,0c-0.1,0.2-0.1,0.3-0.2,0.4c-0.2,0.8-0.2,1.8,0,2.8l8.3-3.2l-6.2-14.9
				C67.1,171.8,67,171.8,66.9,171.9z"/>
			<path class="st4" d="M21.4,171.5c0-0.1,0-0.2,0.1-0.4c0.1,0.1,0.3,0.2,0.4,0.3c1.9,1.2,5.3,1.6,6.5-0.2c1.2-1.9-0.3-5.3-2.1-6.5
				c-0.1-0.1-0.2-0.1-0.3-0.2c0.2-0.1,0.3-0.2,0.4-0.3c1.7-1.4,3.2-4.4,1.8-6.1c-1.4-1.7-5.1-1.5-6.8-0.1c-0.1,0.1-0.2,0.2-0.3,0.3
				c0-0.2-0.1-0.3-0.1-0.5c-0.8-2.1-3.4-4.4-5.5-3.7c-2.1,0.8-2.8,4.4-2,6.5c0,0.1,0.1,0.2,0.2,0.3c-0.2,0-0.3,0-0.5,0
				c-0.6,0-1.3,0.2-1.9,0.4l2.5,7.6c0.1,0,0.1,0,0.1,0c0,0.1-0.1,0.1-0.1,0.2l2,6.1c0.1,0.1,0.3,0.1,0.4,0.1
				C18.3,176,20.8,173.7,21.4,171.5z"/>
			<path class="st4" d="M53.3,167.6c-1.4-1.7-5.1-1.5-6.8-0.1c-0.1,0.1-0.2,0.2-0.3,0.3c0-0.2-0.1-0.3-0.1-0.5
				c-0.8-2.1-3.4-4.4-5.5-3.7c-2.1,0.8-2.8,4.4-2,6.5c0,0.1,0.1,0.2,0.2,0.3c-0.2,0-0.3,0-0.5,0c-2.2,0.1-5.5,1.8-5.4,4
				c0.1,2.2,3.6,4.1,5.8,4c0.1,0,0.2,0,0.4,0c-0.1,0.2-0.1,0.3-0.2,0.4c-0.6,2.1,0.4,5.4,2.5,6s4.6-1.8,5.2-3.9c0-0.1,0-0.2,0.1-0.4
				c0.1,0.1,0.3,0.2,0.4,0.3c1.9,1.2,5.3,1.6,6.5-0.2c1.2-1.9-0.3-5.3-2.1-6.5c-0.1-0.1-0.2-0.1-0.3-0.2c0.2-0.1,0.3-0.2,0.4-0.3
				C53.2,172.3,54.7,169.3,53.3,167.6z"/>
		</g>
		<g id="flag2">
			<path class="st5" d="M121.8,138.7l9.2,4.9l3.6,1.9l-16.8-24.8l-3.6,2.3l-8.8,5.5l-0.4-10.4l-0.4-10.4l6.8,3.6l-6-8.9l-39.7,25.1
				l3,5.2l-0.2-4.4l9.2,4.9l9.2,4.9l-8.8,5.5l-2.3,1.5l15.5,27.1l-0.1-3.5l-0.4-10.4l9.2,4.9l8.5,4.5l14-8.9l-0.3-9.5L121.8,138.7z
				 M103.8,145.6l-8.8,5.5l-0.4-10.4l-0.4-10.4l9.2,4.9l9.2,4.9L103.8,145.6z"/>
			<polygon class="st6" points="134.6,145.5 131,143.6 121.8,138.7 122.1,149.1 122.5,158.6 137.2,149.3 			"/>
			<polygon class="st7" points="90.8,158.1 91.2,168.6 91.3,172.1 94,176.7 108.5,167.5 100,163 			"/>
			<polygon class="st8" points="94.2,130.3 94.6,140.7 94.9,151.1 103.8,145.6 112.6,140 103.4,135.2 			"/>
			<polygon class="st6" points="86.9,138 77.7,133.1 68.5,128.3 68.7,132.7 75.8,145 78.1,143.6 			"/>
			<polygon class="st9" points="105,118.1 105.3,128.5 114.2,122.9 117.8,120.7 111.4,111.2 104.6,107.6 			"/>
		</g>
		<g id="flag4">
			<polygon class="st10" points="164.2,47.1 168.8,50.9 166.6,43.9 			"/>
			<path class="st10" d="M238.8,42l-5.4-3.8l-6.8-0.2l-1.8-5.8l-6.6-4.6l-6.9-0.2l-1.8-5.9L203,17l-7.2-0.2l-1.9-6.1l-1.6-1.2
				l-5.8,7.7l8.3,0.2l3.3,10.3l-10.8-0.4l-2.5-7.9l-7.4,9.9l8,0.2l3.3,10.3l-10.8-0.4l-2.4-7.6l-6.7,9l7.7,0.2l3.3,10.3l-10.5-0.4
				l39,31.8L238.8,42z M225.9,38.7l3.3,10.3l-10.8-0.4l-3.2-10.3L225.9,38.7z M220.7,62l-10.8-0.4l-3.2-10.3l10.8,0.3L220.7,62z
				 M210.4,28.1l3.3,10.3L202.8,38l-3.2-10.3L210.4,28.1z M201.8,41.3l3.3,10.3l-10.8-0.4L191,41L201.8,41.3z M184.8,62.7l-3.2-10.3
				l10.8,0.3l3.3,10.3L184.8,62.7z M197,64.4l10.8,0.3L211,75l-10.8-0.4L197,64.4z"/>
			<polygon class="st11" points="207.7,64.7 197,64.4 200.2,74.7 211,75 			"/>
			<polygon class="st11" points="181.6,52.5 184.8,62.7 195.6,63.1 192.3,52.8 			"/>
			<polygon class="st11" points="168.9,51.2 169.2,51.2 168.8,50.9 			"/>
			<polygon class="st11" points="176.4,41.3 168.7,41.1 166.6,43.9 168.8,50.9 169.2,51.2 179.7,51.6 			"/>
			<polygon class="st11" points="206.6,51.4 209.9,61.7 220.7,62 217.4,51.7 			"/>
			<polygon class="st11" points="205.1,51.6 201.8,41.3 191,41 194.2,51.2 			"/>
			<polygon class="st11" points="188.6,40 185.3,29.7 177.3,29.5 175.4,32.1 177.8,39.7 			"/>
			<polygon class="st11" points="229.2,49 225.9,38.7 215.1,38.4 218.3,48.7 			"/>
			<polygon class="st11" points="233.4,38.3 224.8,32.2 226.6,38 			"/>
			<polygon class="st11" points="213.7,38.4 210.4,28.1 199.6,27.8 202.8,38 			"/>
			<polygon class="st11" points="218.2,27.6 209.5,21.5 211.3,27.4 			"/>
			<polygon class="st11" points="198,27.8 194.7,17.5 186.5,17.2 184.7,19.5 187.2,27.4 			"/>
			<polygon class="st11" points="203,17 193.9,10.7 195.8,16.8 			"/>
		</g>
		<path class="st12" d="M0,152.2c25.9-6.3,75-26.5,117.8-61.2c39.7-32.2,68.7-71.8,79.3-91.1"/>
	</g>
</g>
</svg>
