<svg id="Layer_1" data-name="Layer 1" xmlns="http://www.w3.org/2000/svg" xmlns:xlink="http://www.w3.org/1999/xlink" viewBox="0 0 239.49 206.4"><defs><style>.cls-1{fill:#fdffb6;}.cls-2{fill:url(#linear-gradient);}.cls-3{fill:#f0bd1c;}.cls-4{fill:#ffb8f8;}.cls-5{fill:#fff3f2;}.cls-6{fill:#f5f5f5;}.cls-7{fill:#7add7d;}.cls-8{fill:#f4ed95;}.cls-9{fill:#d86060;}.cls-10{fill:#3c61e5;}.cls-11{fill:#1e4fd6;}.cls-12{fill:#dcffff;}.cls-13{fill:none;stroke:#8c6239;stroke-miterlimit:10;stroke-width:6px;}</style><linearGradient id="linear-gradient" x1="118.78" y1="100.72" x2="153.96" y2="137.7" gradientTransform="matrix(-1, 0, 0, 1, 239.61, 0)" gradientUnits="userSpaceOnUse"><stop offset="0" stop-color="#fdffb6"/><stop offset="0.13" stop-color="#fcfab3"/><stop offset="0.29" stop-color="#f8eaab"/><stop offset="0.48" stop-color="#f2d09d"/><stop offset="0.67" stop-color="#eaac89"/><stop offset="0.88" stop-color="#df7e70"/><stop offset="1" stop-color="#d86060"/></linearGradient></defs><title>flag_right</title><g id="flag_3" data-name="flag 3"><path class="cls-1" d="M53.12,109.11l13.11,12.11a4.34,4.34,0,1,1,5.36,4.94l8.72,8.06c0-.08,0-.16,0-.24A4.35,4.35,0,0,1,89,134v0l6.72-8a4.16,4.16,0,0,1-1.42.26A4.35,4.35,0,1,1,98.63,122a4.28,4.28,0,0,1-.07.72l6.8-8a4.18,4.18,0,0,1-.72.07,4.35,4.35,0,1,1,4.35-4.35l12.79-15.13L87.28,63.38l-5.91,6a4.21,4.21,0,0,1,2.17-.6A4.4,4.4,0,1,1,79.76,71L73.42,77.5A4.34,4.34,0,1,1,69,82L50.28,101.07A4.28,4.28,0,0,1,51,101a4.33,4.33,0,0,1,2.12,8.11Zm56.11-10.94a4.35,4.35,0,1,1,4.35,4.35A4.34,4.34,0,0,1,109.23,98.17ZM90.35,85.74A4.35,4.35,0,1,1,86,81.39,4.34,4.34,0,0,1,90.35,85.74Zm12.62,0a4.35,4.35,0,1,1-4.34-4.35A4.34,4.34,0,0,1,103,85.74Zm-5.3,12.43a4.35,4.35,0,1,1,4.35,4.35A4.34,4.34,0,0,1,97.67,98.17Zm-7.73,12.2a4.35,4.35,0,1,1,4.34,4.34A4.34,4.34,0,0,1,89.94,110.37Zm-1-7.85a4.35,4.35,0,1,1,4.35-4.35A4.34,4.34,0,0,1,89,102.52Zm-9.79,20.1A4.35,4.35,0,1,1,83.54,127,4.34,4.34,0,0,1,79.19,122.62Zm-4.34-11.36a4.35,4.35,0,1,1,4.34,4.35A4.34,4.34,0,0,1,74.85,111.26ZM70.5,96.66A4.35,4.35,0,1,1,74.85,101,4.35,4.35,0,0,1,70.5,96.66ZM60.8,108a4.35,4.35,0,1,1,4.35,4.34A4.35,4.35,0,0,1,60.8,108ZM56.46,96.66A4.35,4.35,0,1,1,60.8,101,4.34,4.34,0,0,1,56.46,96.66Z" transform="translate(-0.41 0.07)"/><path class="cls-2" d="M85.08,138.62l-.33-.31a3.49,3.49,0,0,0,.65-.06Z" transform="translate(-0.41 0.07)"/><path class="cls-3" d="M113.58,93.83a4.35,4.35,0,1,1-4.35,4.34A4.34,4.34,0,0,1,113.58,93.83Z" transform="translate(-0.41 0.07)"/><path class="cls-3" d="M98.63,90.08A4.35,4.35,0,1,1,103,85.74,4.34,4.34,0,0,1,98.63,90.08Z" transform="translate(-0.41 0.07)"/><path class="cls-3" d="M84.64,98.17A4.35,4.35,0,1,1,89,102.52,4.34,4.34,0,0,1,84.64,98.17Z" transform="translate(-0.41 0.07)"/><path class="cls-3" d="M86,90.08a4.35,4.35,0,1,1,4.35-4.34A4.34,4.34,0,0,1,86,90.08Z" transform="translate(-0.41 0.07)"/><circle class="cls-3" cx="101.6" cy="98.24" r="4.34"/><path class="cls-3" d="M94.28,106a4.35,4.35,0,1,1-4.34,4.35A4.35,4.35,0,0,1,94.28,106Z" transform="translate(-0.41 0.07)"/><path class="cls-3" d="M83.54,118.28a4.35,4.35,0,1,1-4.35,4.34A4.34,4.34,0,0,1,83.54,118.28Z" transform="translate(-0.41 0.07)"/><path class="cls-3" d="M74.85,92.31a4.35,4.35,0,1,1-4.35,4.35A4.34,4.34,0,0,1,74.85,92.31Z" transform="translate(-0.41 0.07)"/><path class="cls-3" d="M79.19,106.92a4.35,4.35,0,1,1-4.34,4.34A4.34,4.34,0,0,1,79.19,106.92Z" transform="translate(-0.41 0.07)"/><path class="cls-3" d="M65.15,103.69A4.35,4.35,0,1,1,60.8,108,4.34,4.34,0,0,1,65.15,103.69Z" transform="translate(-0.41 0.07)"/><path class="cls-3" d="M70.5,117.63a4.33,4.33,0,0,1,1.09,8.53l-5.36-4.94A4.34,4.34,0,0,1,70.5,117.63Z" transform="translate(-0.41 0.07)"/><path class="cls-3" d="M87.88,73.15A4.35,4.35,0,1,1,79.76,71l1.61-1.63a4.21,4.21,0,0,1,2.17-.6A4.34,4.34,0,0,1,87.88,73.15Z" transform="translate(-0.41 0.07)"/><path class="cls-3" d="M77.72,81.84A4.34,4.34,0,0,1,69,82l4.38-4.46A4.35,4.35,0,0,1,77.72,81.84Z" transform="translate(-0.41 0.07)"/><path class="cls-3" d="M60.8,92.31a4.35,4.35,0,1,1-4.34,4.35A4.35,4.35,0,0,1,60.8,92.31Z" transform="translate(-0.41 0.07)"/><path class="cls-3" d="M50.28,101.07A4.28,4.28,0,0,1,51,101a4.33,4.33,0,0,1,2.12,8.11l-5.63-5.19Z" transform="translate(-0.41 0.07)"/><path class="cls-3" d="M100.3,110.37a4.35,4.35,0,0,1,8.69,0l-3.63,4.28a4.18,4.18,0,0,1-.72.07A4.34,4.34,0,0,1,100.3,110.37Z" transform="translate(-0.41 0.07)"/><path class="cls-3" d="M89.94,122a4.35,4.35,0,0,1,8.69,0,4.28,4.28,0,0,1-.07.72l-2.86,3.37a4.16,4.16,0,0,1-1.42.26A4.34,4.34,0,0,1,89.94,122Z" transform="translate(-0.41 0.07)"/><path class="cls-3" d="M84.64,129.64A4.34,4.34,0,0,1,89,134v0l-3.58,4.23a3.49,3.49,0,0,1-.65.06l-4.44-4.09c0-.08,0-.16,0-.24A4.34,4.34,0,0,1,84.64,129.64Z" transform="translate(-0.41 0.07)"/></g><g id="Flag1"><path class="cls-4" d="M207.7,203.37a1.93,1.93,0,0,0,.06.36c.05.15.1.3.16.45l-.9-.34c.1-.06.22-.11.31-.17A3,3,0,0,0,207.7,203.37Z" transform="translate(-0.41 0.07)"/><path class="cls-4" d="M225.54,170.36l-.07.19-.08-.21Z" transform="translate(-0.41 0.07)"/><path class="cls-4" d="M177.22,160.62a6,6,0,0,0,1.37-.64,2.44,2.44,0,0,0,.37-.3,3.29,3.29,0,0,0,.07.36c.59,2.13,3.08,4.48,5.22,3.89s3.11-3.88,2.52-6a3.67,3.67,0,0,0-.17-.45,2.58,2.58,0,0,0,.36.05c2.21.1,5.66-1.81,5.77-4s-3.18-3.89-5.4-4l-.47,0a2.3,2.3,0,0,0,.15-.33c.79-2.07.09-5.71-2-6.49l-.27-.08,2.92-7,43.85,16.77-3.46,10.36a6.81,6.81,0,0,0-1.94-.41,2.57,2.57,0,0,0-.47,0,3,3,0,0,0,.15-.32c.79-2.08.09-5.71-2-6.49s-4.73,1.58-5.52,3.65a2.8,2.8,0,0,0-.12.46,3,3,0,0,0-.26-.25c-1.73-1.38-5.46-1.58-6.85.15s.1,4.73,1.83,6.12a3.47,3.47,0,0,0,.4.26l-.32.17c-1.85,1.22-3.32,4.62-2.11,6.47s4.67,1.45,6.52.24a2,2,0,0,0,.37-.31,2.88,2.88,0,0,0,.07.36c.58,2.14,3.08,4.48,5.21,3.9a2.86,2.86,0,0,0,.41-.15l-5.63,16.88a7.22,7.22,0,0,0-1.74-.34l-.48,0a2.45,2.45,0,0,0,.16-.33c.78-2.07.08-5.71-2-6.49s-4.74,1.58-5.52,3.66a2.56,2.56,0,0,0-.12.46,2.94,2.94,0,0,0-.26-.25c-1.73-1.39-5.47-1.59-6.85.14s.1,4.74,1.83,6.12a2.51,2.51,0,0,0,.4.26,3.1,3.1,0,0,0-.32.17,6.44,6.44,0,0,0-2.52,4.34l-26.35-10.08a5.8,5.8,0,0,0,0-2.75,3,3,0,0,0-.17-.44,2.47,2.47,0,0,0,.36,0c2.21.11,5.66-1.8,5.77-4s-3.18-3.9-5.4-4a2.57,2.57,0,0,0-.47,0,3.18,3.18,0,0,0,.16-.32c.78-2.08.08-5.71-2-6.49a1.72,1.72,0,0,0-.28-.08l-6.23,14.87h0Z" transform="translate(-0.41 0.07)"/><path class="cls-5" d="M202.92,197a3.1,3.1,0,0,1,.32-.17,2.51,2.51,0,0,1-.4-.26c-1.73-1.38-3.22-4.39-1.83-6.12s5.12-1.53,6.85-.14a2.94,2.94,0,0,1,.26.25,2.56,2.56,0,0,1,.12-.46c.78-2.08,3.45-4.44,5.52-3.66s2.77,4.42,2,6.49a2.45,2.45,0,0,1-.16.33l.48,0a7.22,7.22,0,0,1,1.74.34l-4.27,12.8-5.62-2.15c-.06-.15-.11-.3-.16-.45a1.93,1.93,0,0,1-.06-.36,3,3,0,0,1-.37.3c-.09.06-.21.11-.31.17l-6.62-2.54A6.44,6.44,0,0,1,202.92,197Z" transform="translate(-0.41 0.07)"/><path class="cls-5" d="M187,149.2a2.3,2.3,0,0,1-.15.33l.47,0c2.22.11,5.5,1.79,5.4,4s-3.56,4.12-5.77,4a2.58,2.58,0,0,1-.36-.05,3.67,3.67,0,0,1,.17.45c.59,2.13-.39,5.43-2.52,6s-4.63-1.76-5.22-3.89a3.29,3.29,0,0,1-.07-.36,2.44,2.44,0,0,1-.37.3,6,6,0,0,1-1.37.64l7.53-18,.27.08C187.1,143.49,187.8,147.13,187,149.2Z" transform="translate(-0.41 0.07)"/><path class="cls-5" d="M172.3,173.27c2.07.78,2.77,4.41,2,6.49a3.18,3.18,0,0,1-.16.32,2.57,2.57,0,0,1,.47,0c2.22.1,5.5,1.78,5.4,4s-3.56,4.12-5.77,4a2.47,2.47,0,0,1-.36,0,3,3,0,0,1,.17.44,5.8,5.8,0,0,1,0,2.75l-8.26-3.16L172,173.19A1.72,1.72,0,0,1,172.3,173.27Z" transform="translate(-0.41 0.07)"/><path class="cls-5" d="M217.82,172.9a2.88,2.88,0,0,1-.07-.36,2,2,0,0,1-.37.31c-1.85,1.21-5.3,1.62-6.52-.24s.26-5.25,2.11-6.47l.32-.17a3.47,3.47,0,0,1-.4-.26c-1.73-1.39-3.22-4.39-1.83-6.12s5.12-1.53,6.85-.15a3,3,0,0,1,.26.25,2.8,2.8,0,0,1,.12-.46c.79-2.07,3.45-4.44,5.52-3.65s2.78,4.41,2,6.49a3,3,0,0,1-.15.32,2.57,2.57,0,0,1,.47,0,6.81,6.81,0,0,1,1.94.41l-2.52,7.58-.15,0,.08.21-2,6.1a2.86,2.86,0,0,1-.41.15C220.9,177.38,218.4,175,217.82,172.9Z" transform="translate(-0.41 0.07)"/><path class="cls-5" d="M185.93,169c1.39-1.73,5.12-1.53,6.85-.15a2,2,0,0,1,.26.25,4.28,4.28,0,0,1,.13-.46c.78-2.07,3.44-4.44,5.52-3.65s2.77,4.41,2,6.49a3.18,3.18,0,0,1-.16.32,2.64,2.64,0,0,1,.48,0c2.21.1,5.49,1.78,5.39,4s-3.56,4.12-5.77,4l-.36-.05a3.57,3.57,0,0,1,.17.44c.59,2.14-.39,5.43-2.52,6s-4.63-1.76-5.22-3.9a1.8,1.8,0,0,1-.06-.36,3,3,0,0,1-.37.31c-1.86,1.21-5.31,1.62-6.52-.24s.26-5.25,2.11-6.47a1.91,1.91,0,0,1,.32-.17,2.78,2.78,0,0,1-.4-.26C186,173.68,184.55,170.68,185.93,169Z" transform="translate(-0.41 0.07)"/></g><g id="flag2"><path class="cls-6" d="M117.06,150.49l-.35,9.54,14,8.86,8.48-4.49,9.22-4.88L148,169.94l-.13,3.53,15.54-27.06L161.1,145l-8.84-5.54,9.22-4.89,9.22-4.88-.16,4.4,3-5.22-39.66-25.13-6,8.92,6.8-3.59-.38,10.42-.38,10.43L125,124.33l-3.59-2.26-16.79,24.77,3.58-1.89,9.22-4.89Zm9.51-9.07,9.23-4.88,9.22-4.89-.38,10.43-.38,10.43L135.42,147Z" transform="translate(-0.41 0.07)"/><polygon class="cls-7" points="104.23 146.91 107.8 145.02 117.02 140.14 116.64 150.56 116.3 160.1 101.6 150.79 104.23 146.91"/><polygon class="cls-8" points="147.99 159.59 147.6 170.02 147.48 173.55 144.82 178.17 130.29 168.96 138.76 164.47 147.99 159.59"/><polygon class="cls-9" points="144.6 131.72 144.22 142.15 143.84 152.58 135 147.03 126.16 141.49 135.38 136.61 144.6 131.72"/><polygon class="cls-7" points="151.84 139.48 161.06 134.59 170.28 129.71 170.12 134.12 163.02 146.49 160.68 145.02 151.84 139.48"/><polygon class="cls-10" points="133.83 119.52 133.45 129.94 124.61 124.4 121.01 122.14 127.42 112.69 134.21 109.09 133.83 119.52"/></g><g id="flag4"><polygon class="cls-11" points="74.62 48.59 70.01 52.35 72.21 45.35 74.62 48.59"/><path class="cls-11" d="M31,84.44,70,52.62,59.49,53l3.3-10.32,7.71-.23-6.71-9L61.41,41l-10.83.38,3.3-10.33,8-.23-7.41-9.93L52,28.78l-10.83.37,3.3-10.32,8.27-.24L47,10.88,45.32,12l-1.93,6.12-7.18.25-6.48,4.53-1.84,5.85L21,29l-6.59,4.61-1.82,5.79-6.79.23L.41,43.43ZM24.09,39.79,20.87,50.05,10,50.42l3.3-10.32Zm-2.28,13.3,10.75-.31L29.34,63l-10.83.37ZM39.59,29.15,36.37,39.42l-10.83.37,3.3-10.33Zm8.59,13.2L45,52.61,34.12,53l3.31-10.32ZM43.55,64.5l3.3-10.32,10.75-.31L54.38,64.13ZM39,76l-10.83.37,3.3-10.32,10.75-.31Z" transform="translate(-0.41 0.07)"/><polygon class="cls-12" points="31.06 66.16 41.81 65.85 38.59 76.11 27.76 76.48 31.06 66.16"/><polygon class="cls-12" points="57.19 53.94 53.97 64.2 43.14 64.57 46.44 54.25 57.19 53.94"/><polygon class="cls-12" points="69.91 52.68 69.59 52.69 70.01 52.35 69.91 52.68"/><polygon class="cls-12" points="62.38 42.73 70.08 42.5 72.21 45.35 70.01 52.35 69.59 52.69 59.08 53.05 62.38 42.73"/><polygon class="cls-12" points="32.15 52.85 28.93 63.12 18.1 63.49 21.4 53.16 32.15 52.85"/><polygon class="cls-12" points="33.71 53.05 37.01 42.73 47.76 42.42 44.54 52.68 33.71 53.05"/><polygon class="cls-12" points="50.16 41.48 53.47 31.16 61.45 30.93 63.38 33.51 60.99 41.11 50.16 41.48"/><polygon class="cls-12" points="9.62 50.49 12.92 40.17 23.68 39.86 20.45 50.12 9.62 50.49"/><polygon class="cls-12" points="5.41 39.72 14.02 33.7 12.2 39.49 5.41 39.72"/><polygon class="cls-12" points="25.12 39.86 28.43 29.54 39.18 29.23 35.95 39.49 25.12 39.86"/><polygon class="cls-12" points="20.61 29.09 29.32 23 27.48 28.86 20.61 29.09"/><polygon class="cls-12" points="40.74 29.23 44.04 18.9 52.3 18.67 54.04 20.99 51.57 28.86 40.74 29.23"/><polygon class="cls-12" points="35.8 18.47 44.9 12.11 42.98 18.22 35.8 18.47"/></g><path class="cls-13" d="M239.2,153.61c-25.94-6.28-75-26.48-117.76-61.16C81.7,60.2,52.75,20.61,42.1,1.38" transform="translate(-0.41 0.07)"/></svg>