<?xml version="1.0" encoding="utf-8"?>
<!-- Generator: Adobe Illustrator 22.0.1, SVG Export Plug-In . SVG Version: 6.00 Build 0)  -->
<svg version="1.1" id="Layer_1" xmlns="http://www.w3.org/2000/svg" xmlns:xlink="http://www.w3.org/1999/xlink" x="0px" y="0px"
	 viewBox="0 0 744.9 365.7" style="enable-background:new 0 0 744.9 365.7;" xml:space="preserve">
<style type="text/css">
	.st0{fill:#5CB15D;}
	.st1{fill:#FFB6EA;}
	.st2{fill:#FDFFB6;}
	.st3{fill:#F0BD1C;}
	.st4{fill:#A2DFF9;}
</style>
<path id="lives1" class="st0" d="M160.3,152.7c16.1-37.3,31-41.6,45.6,1.2c5.8-36.8,20.7-18.4,29.2-12.4
	c4.2-37.3,16.3-89.8,35.6-22.7c9.1-30.6,30.1-38.4,33.9-11c22.5-30.1,81.4-33.7,13.6,46.1c31.2-13.5,41.8-3.4,26.8,35.9
	c15.5-0.7,30.7,5.6,23.5,29.7c22.7-24.8,38.9-16.5,43.5,2.4c18.6-40,39.4-35.6,29.4-1.8c40.8-23,48.8,7.4-13.3,45.1
	c26.9,1,16.9,12,13.5,23.3c43.2-31,40.5,6.7,36.7,19.6c32.3-51.7,46.8-31.7,34.7,3.3c30.7-34.7,36.4-13.8,33-2.5
	c13.1-15.4,20.4-11.5,24.1-6.9c5.9-31.5,21.3-37.5,34.5-7.3c1.9-46.7,20.8-58.7,28.7-10.8c32.6-18.4,29.7,8.8,29.5,21
	c30.7-34.7,48.4-8.5,53.8,19.4c12.9-20.7,24.4-21,23.9,20.9l-6.4,23L1.5,365.6L-3.8,23.6c21.1-25.3,43.6-15.1,37.9,27
	c12.4-19.1,31.3-8.2,17.5,15.7c27.3-5.9,21.9,6.5,20.6,16.6c30.9-6.6,76-3.8,65.5,54.4C157.2,129,160.3,152.7,160.3,152.7z"/>
<g id="Flower">
	<path class="st1" d="M52.8,236c-6.5-7.6,7-17.9,32.4-26.8c-35-17.2-57.7-32.4-56.3-38.9c1.4-6.5,26.6-2.7,62.9,8.4
		c-17.9-26.2-25.2-44.7-16.6-46.3c8.5-1.6,30.7,14.1,56.6,38.7c9.7-19.8,22.2-30.8,32.8-26.5c10.6,4.2,16.8,22.6,17.1,46.3
		c31.6-1.8,56.5,1.1,63,8.7c6.5,7.6-7,17.9-32.4,26.8c35,17.2,57.7,32.4,56.3,38.9c-1.4,6.5-26.6,2.7-62.9-8.4
		c17.9,26.2,25.2,44.7,16.6,46.3c-8.5,1.6-30.7-14.1-56.6-38.7c-9.7,19.8-22.2,30.8-32.8,26.5c-10.6-4.2-16.8-22.6-17.1-46.3
		C84.2,246.6,59.3,243.6,52.8,236z"/>
	
		<ellipse transform="matrix(0.4419 -0.8971 0.8971 0.4419 -112.0723 256.7431)" class="st2" cx="150.3" cy="218.4" rx="23.1" ry="40.9"/>
</g>
<g id="Flower_2_">
	<path class="st3" d="M176.7,334c-8.3-5.6,1.9-19.1,24-34.5c-38.3-7.2-64.3-15.7-64.7-22.4c-0.4-6.6,24.9-9.7,62.9-8.8
		c-24.2-20.4-36.2-36.3-28.4-40.1s33.3,5.3,64.9,22.1c4-21.7,13.1-35.6,24.5-34.4c11.4,1.2,22.2,17.2,28.9,40.1
		c30-10.2,54.7-14,63.1-8.5c8.3,5.6-1.9,19.1-24,34.5c38.3,7.2,64.3,15.7,64.7,22.4c0.4,6.6-24.9,9.7-62.9,8.8
		c24.2,20.4,36.2,36.3,28.4,40.1c-7.8,3.8-33.3-5.3-64.9-22.1c-4,21.7-13.1,35.6-24.5,34.4c-11.4-1.2-22.2-17.2-28.9-40.1
		C209.8,335.8,185,339.6,176.7,334z"/>
	
		<ellipse transform="matrix(0.1853 -0.9827 0.9827 0.1853 -69.2976 498.3552)" class="st2" cx="265.9" cy="291" rx="23.1" ry="40.9"/>
</g>
<g id="Flower_3_">
	<path class="st4" d="M644.4,328c6.2-4-1.1-15.5-17.2-29.3c28.3-3.5,47.5-8.9,47.9-14.2c0.4-5.3-18.2-9.3-46.1-10.8
		c18.1-15.1,27.1-27.2,21.5-30.7s-24.6,2.3-48,14c-2.7-17.8-9.1-29.5-17.5-29.2c-8.4,0.3-16.6,12.6-21.8,30.7
		c-21.9-10-40-14.6-46.2-10.6c-6.2,4,1.1,15.5,17.2,29.3c-28.3,3.5-47.5,8.9-47.9,14.2c-0.4,5.3,18.2,9.3,46.1,10.8
		c-18.1,15.1-27.1,27.2-21.5,30.7c5.7,3.6,24.6-2.3,48-14c2.7,17.8,9.1,29.5,17.5,29.2c8.4-0.3,16.6-12.6,21.8-30.7
		C620.1,327.5,638.2,332,644.4,328z"/>
	
		<ellipse transform="matrix(0.9941 -0.1089 0.1089 0.9941 -27.9141 64.8231)" class="st2" cx="579.5" cy="288" rx="29.8" ry="18.8"/>
</g>
<g id="Flower_4_">
	<path class="st1" d="M721.8,339.1c3.5-2.2-0.6-8.7-9.6-16.4c15.8-2,26.6-5,26.8-8c0.2-3-10.2-5.2-25.8-6.1
		c10.2-8.4,15.2-15.2,12-17.2s-13.8,1.3-26.9,7.9c-1.5-10-5.1-16.6-9.8-16.4c-4.7,0.2-9.3,7.1-12.2,17.2
		c-12.3-5.6-22.4-8.2-25.9-5.9c-3.5,2.2,0.6,8.7,9.6,16.4c-15.8,2-26.6,5-26.8,8c-0.2,3,10.2,5.2,25.8,6.1
		c-10.2,8.4-15.2,15.2-12,17.2s13.8-1.3,26.9-7.9c1.5,10,5.1,16.6,9.8,16.4c4.7-0.2,9.3-7.1,12.2-17.2
		C708.1,338.8,718.3,341.3,721.8,339.1z"/>
	
		<ellipse transform="matrix(0.9941 -0.1089 0.1089 0.9941 -30.4018 76.5195)" class="st2" cx="685.4" cy="316.6" rx="16.7" ry="10.5"/>
</g>
</svg>
