<svg id="Layer_1" data-name="Layer 1" xmlns="http://www.w3.org/2000/svg" viewBox="0 0 797.52 151.43"><defs><style>.cls-1{fill:#5cb15d;stroke:#5cb15d;stroke-miterlimit:10;}.cls-2{fill:#ffb6ea;}.cls-3{fill:#fdffb6;}.cls-4{fill:#f0bd1c;}</style></defs><title>grass-right1</title><path id="lives2" class="cls-1" d="M211.14,144.37c-3.79-38.5,7.21-49.22,40.62-20.79-12.65-33.19,9.38-25.12,19.68-24.2-14.25-32.82-28.88-82,20.36-35.83-6.78-29.62,7.93-46.11,24.47-25.3,5.28-35.66,55.3-66.81,34.13,31.55C371.31,43.68,385.52,47,391.26,86.69c13.3-8,29.63-10.08,35,13.3,7.94-31.35,26.23-32.26,39.39-18.87-2.9-42,17.51-48.3,25-15.57,24.8-38.49,46.49-17.22,10,43.64,24.13-12.09,20.6,1.84,23.1,12.75,23-46.29,38.86-13.83,41.71-1.36,3.48-58.21,25.86-48.57,32.12-13.92,10.24-43.36,25.35-28.78,27.85-17.86,4.06-19,12.4-19.25,17.91-17.23-10-28.88.65-41.16,26.77-22.54-20.82-39.52-10-58.4,20-22.64,19.85-30.8,30.35-7,36.05,3.22,10.24-43.36,38.48-30.14,56.62-9.69,1.39-23.29,18.32-34.18,18.32.82l-1,125-788,3-7.51-32.5c6.35-31,31-33.36,46.35,4.14,1.74-21.72,23.58-21.81,22.9,4.6C95,107,96.24,119.85,100,128.84c23.94-20.26,64.92-39.49,83.81,13.6C196.91,126.31,211.14,144.37,211.14,144.37Z" transform="translate(-4.11 2.19)"/><g id="Flower"><path class="cls-2" d="M502.6,116c4.39-3.19,0-11.15-10.16-20.33,19.26-4,32.5-8.76,33-12.64s-11.82-5.84-30.59-5.54c13-11.77,19.66-21,16-23.26s-16.7,2.89-33.09,12.5c-.93-12.69-4.71-20.88-10.39-20.24S455.6,56.4,451.19,69.69c-14.27-6.18-26.31-8.57-30.69-5.37s0,11.14,10.16,20.33c-19.26,3.94-32.5,8.76-33,12.64s11.81,5.84,30.58,5.54c-13,11.76-19.65,21-16,23.25s16.71-2.89,33.1-12.5c.92,12.7,4.7,20.88,10.38,20.25s11.81-9.93,16.22-23.22C486.18,116.8,498.22,119.18,502.6,116Z" transform="translate(-4.11 2.19)"/><ellipse class="cls-3" cx="460.71" cy="90.25" rx="20.72" ry="13.15" transform="translate(-10.62 138.34) rotate(-16.69)"/></g><g id="Flower-2" data-name="Flower"><path class="cls-4" d="M413.45,131.61c3.11-2.27,0-7.91-7.21-14.42,13.66-2.8,23.05-6.21,23.42-9s-8.38-4.14-21.69-3.92c9.2-8.35,13.94-14.86,11.35-16.49s-11.84,2-23.46,8.86c-.66-9-3.34-14.8-7.37-14.35s-8.37,7-11.5,16.46c-10.11-4.39-18.65-6.08-21.76-3.81s0,7.9,7.2,14.41c-13.65,2.8-23,6.21-23.41,9s8.37,4.14,21.68,3.92c-9.19,8.35-13.93,14.87-11.35,16.49s11.85-2,23.47-8.86c.65,9,3.34,14.81,7.36,14.36s8.38-7,11.5-16.47C401.8,132.18,410.34,133.87,413.45,131.61Z" transform="translate(-4.11 2.19)"/><ellipse class="cls-3" cx="383.74" cy="113.35" rx="14.69" ry="9.32" transform="translate(-20.5 117.2) rotate(-16.69)"/></g></svg>