<?xml version="1.0" encoding="utf-8"?>
<!-- Generator: Adobe Illustrator 22.0.1, SVG Export Plug-In . SVG Version: 6.00 Build 0)  -->
<svg version="1.1" id="Layer_1" xmlns="http://www.w3.org/2000/svg" xmlns:xlink="http://www.w3.org/1999/xlink" x="0px" y="0px"
	 viewBox="0 0 299.9 440.9" style="enable-background:new 0 0 299.9 440.9;" xml:space="preserve">
<style type="text/css">
	.st0{fill:#B3B3B3;stroke:#8E8E8E;stroke-miterlimit:10;}
	.st1{fill:#FFFAD4;}
	.st2{fill:#FFD9E5;}
	.st3{stroke:#000000;stroke-width:3;stroke-miterlimit:10;}
	.st4{fill:none;stroke:#000000;stroke-width:3;stroke-miterlimit:10;}
</style>
<g id="RABBIT">
	<g id="RABBIT_1_">
		<g id="FOOT">
			
				<ellipse transform="matrix(0.8018 -0.5976 0.5976 0.8018 -225.3748 108.1276)" class="st0" cx="50.3" cy="393.8" rx="37.5" ry="22.7"/>
			
				<ellipse transform="matrix(0.6288 -0.7776 0.7776 0.6288 -249.3823 279.7584)" class="st0" cx="168.3" cy="401.1" rx="22.7" ry="37.5"/>
		</g>
		<g id="body_1_">
			<circle class="st0" cx="193.2" cy="357.1" r="17.1"/>
			<path class="st0" d="M192.5,334.8c-2.7-61.1-35.9-91.6-71.3-91.1c-20.3,0.3-35.6,3.6-47.4,11.1c-0.6-1.2-1.5-2.2-2.6-3.1
				c-1.7-1.8-17.5,1.8-29.2-0.9c-11.7-2.7-24-14-26.5-12c-3.7,0.8-6.3,3.5-7.4,8.2c-2.9,12.5,9.5,26,27.7,30.2
				c6,1.4,11.9,1.6,17.2,0.8c-5.2,9.9-9.3,22.2-12.6,37.4c-14.3,64.8,10.3,80.4,63.1,85C156.5,405,194.8,387.8,192.5,334.8z"/>
			<path class="st1" d="M152.2,330.8c-2.6,26.3-19.4,48.9-57.4,43.3c-35.2-5.2-41.1-34.1-35.3-60.2c6.4-28.4,18.8-53.8,57.2-47.1
				C151.6,272.8,155,302.3,152.2,330.8z"/>
		</g>
		<path id="LEFT_x5F_HAND" class="st0" d="M161.1,292.2c4.9,1.6,14.6,3.6,22.9,6.9c11.2,4.4,24.4,14,27.1,12.4
			c3.8-0.3,6.7-2.6,8.4-7c4.7-11.9-5.7-27.1-23.1-33.9c-9-3.5-18-4.1-25.4-2.2"/>
		<g id="HEAD">
			<path class="st0" d="M236.1,103.1c25.2-33.9,49.8-57.7,26-75.9c-21.2-16.2-39.9,13-65.1,46.9c-13.7,18.5-23.4,37-27.7,51.3
				c-7.4-3.6-15.6-6.7-24.4-9c-6.9-1.9-13.9-3-20.8-3.4c4.1-21.9,11.8-93.8-5.7-104.9C94.1-7.4,13.4,36.2,82.7,47.2
				c0.8,14.1,5.6,54.9,9.1,68.7c-28.5,7.6-52,28.1-61,60c-13.7,48.7,16.6,78.9,65.4,92.2c50.4,13.7,106.5,3.8,118.9-45.2
				c8-31.6,0.4-59-19.4-78.9C208,135.7,222.6,121.2,236.1,103.1z"/>
			<path class="st2" d="M219,101.3c18.5-24.4,31.4-45.9,25.7-50.2c-5.4-4.1-22.8,13.9-41.3,38.3c-11.5,15.2-20.3,29.6-24.3,39.2
				c3.2,2,6.3,4.1,9.1,6.4C196.2,128.6,207.6,116.3,219,101.3z"/>
			<path class="st2" d="M105.5,40c3.6,10,6,59.5,3.2,67.9l-6.7,0.8c-2.2-4.9-14.1-55.8-12.9-63.9L105.5,40z"/>
			<circle cx="78.6" cy="174.8" r="9.3"/>
			<circle cx="158.9" cy="195.5" r="9.3"/>
			<g>
				<path class="st1" d="M141.2,230.7c-5.7,15.4-27,16.4-45.3,10.2c-18.6-6.3-30.9-20.3-25.2-35.7s22.6-20.4,42.3-14.4
					C132.5,196.7,146.9,215.3,141.2,230.7z"/>
				<g>
					<path class="st3" d="M113.4,207.5c-1,1.1-3.7,2.6-6.4,1.6c-2.7-1-3.2-3.6-3.4-5.1c-0.2-1.6,0.8-3.1,6-1.3
						C115,204.5,114.7,206,113.4,207.5z"/>
					<path class="st4" d="M85.7,206c-5.9,7.3,13.3,20,21.4,3.1c-5.4,20,21.2,18.8,21.4,9.3"/>
				</g>
			</g>
		</g>
	</g>
</g>
</svg>
