<?xml version="1.0" encoding="utf-8"?>
<!-- Generator: Adobe Illustrator 22.0.1, SVG Export Plug-In . SVG Version: 6.00 Build 0)  -->
<svg version="1.1" id="Layer_1" xmlns="http://www.w3.org/2000/svg" xmlns:xlink="http://www.w3.org/1999/xlink" x="0px" y="0px"
	 viewBox="0 0 801 468.4" style="enable-background:new 0 0 801 468.4;" xml:space="preserve">
<style type="text/css">
	.st0{fill:#5CB15D;}
	.st1{fill:#EA78ED;}
	.st2{fill:#FDFFB6;}
	.st3{fill:#FFFF78;}
	.st4{fill:#F0BD1C;}
	.st5{fill:#FFB6EA;}
	.st6{fill:#3061CE;}
	.st7{fill:#7ACAED;}
</style>
<g>
	<g>
		<g>
			<g>
				<path class="st0" d="M101,143.4c-7.7,32.3,10.8,63.1,33.5,84.7c24.1,23,55.3,40.4,71.7,70.5c8.5,15.6,12.2,33.6,6,50.7
					c-2.7,7.3,8.9,10.4,11.6,3.2c11.3-30.5-4.8-63.1-25.8-85.1c-23.3-24.4-54.9-41.1-73.5-69.8c-9.8-15.1-16-33.1-11.7-51.1
					C114.3,139,102.8,135.8,101,143.4L101,143.4z"/>
			</g>
		</g>
		<g>
			<g id="Flower_9_">
				<path class="st1" d="M153.3,132.7c6.6-7,0.9-16.6-13.1-24.9c28.3-16,48-30.1,49.1-36.1c1.1-6-16.7-2.5-44,7.8
					c19.8-24.3,30.3-41.5,25.2-43S146,49.6,121.3,72.4c-0.3-18.3-5.2-28.4-13.5-24.5s-18,20.9-25.5,43C62.1,89.2,44.8,92,38.1,99
					c-6.6,7-0.9,16.6,13.1,24.9c-28.3,16-48,30.1-49.1,36.1c-1.1,6,16.7,2.5,44-7.8c-19.8,24.3-30.3,41.5-25.2,43
					s24.5-13.1,49.2-35.9c0.3,18.4,5.1,28.6,13.5,24.6c8.3-3.9,18-20.9,25.5-43C129.4,142.5,146.7,139.8,153.3,132.7z"/>
				
					<ellipse transform="matrix(0.7839 -0.6209 0.6209 0.7839 -51.8642 83.8173)" class="st2" cx="94.5" cy="116.4" rx="35.6" ry="16.2"/>
			</g>
		</g>
	</g>
	<g>
		<g>
			<g>
				<path class="st0" d="M244.5,99.7c-29.8,69.5-25.5,151,9.3,217.9c9.7,18.6,21.9,35.9,36,51.5c5.2,5.7,13.7-2.8,8.5-8.5
					c-47.9-52.4-69.5-127.2-59.4-197.3c2.8-19.7,8.1-39.2,16-57.6C257.9,98.7,247.6,92.6,244.5,99.7L244.5,99.7z"/>
			</g>
		</g>
		<g>
			<g id="Flower_15_">
				<path class="st3" d="M281.5,141.4c6.7-3.3,6.7-18,0.9-37c23.6,1.6,41.1-0.7,44-6.7c2.9-6.1-9.5-14.3-30.4-21.6
					c21.3-13.6,34.2-25.7,31.5-30.9s-20.2-2.3-44,6.5c6.6-20.9,7.3-35.7,0.6-37c-6.6-1.3-19,11.1-31.8,30.8
					c-12-15.9-23.9-24.7-30.6-21.4c-6.7,3.3-6.7,18-0.9,37c-23.6-1.6-41.1,0.7-44,6.7c-2.9,6.1,9.5,14.3,30.4,21.6
					c-21.3,13.6-34.2,25.7-31.5,30.9c2.7,5.2,20.2,2.3,44-6.5c-6.6,20.9-7.3,35.7-0.6,37c6.6,1.3,19-11.1,31.8-30.8
					C262.9,135.9,274.8,144.7,281.5,141.4z"/>
				
					<ellipse transform="matrix(0.9033 -0.4291 0.4291 0.9033 -11.1444 115.5639)" class="st2" cx="250.7" cy="82.5" rx="26.7" ry="20.7"/>
			</g>
		</g>
	</g>
	<g>
		<g>
			<path class="st0" d="M360.2,143c23.9,15.8,39.9,41.6,44.7,69.7c5.8,34-10.6,64.6-18.5,96.7c-4.6,18.6-6.3,38.5,0.1,56.9
				c2.5,7.3,14.1,4.1,11.6-3.2c-12.3-35.6,8.2-71,16.4-105c7.3-30.5,3.2-62.1-13.2-89.1c-8.8-14.6-20.8-27-35-36.4
				C359.8,128.4,353.8,138.8,360.2,143L360.2,143z"/>
		</g>
	</g>
	<g>
		<g>
			<g>
				<path class="st0" d="M508.2,164.2c-39.1,45.2-54.9,107.8-44,166.4c3.1,16.5,8.4,32.5,15.7,47.6c3.4,7,13.7,0.9,10.4-6.1
					c-24-49.7-23-110.4,0.8-160.1c6.8-14.2,15.4-27.5,25.7-39.4C521.7,166.9,513.3,158.4,508.2,164.2L508.2,164.2z"/>
			</g>
		</g>
		<g>
			<g id="Flower_10_">
				<path class="st4" d="M474.7,169.1c-6.8-5.7-0.9-18.8,13.5-33.6c-29-8-49.1-17.1-50.2-23.7s17.1-9,45.1-7.2
					c-20.3-20.8-31-36.8-25.7-40.4s25.1,6.1,50.3,23.5c0.4-21.4,5.3-34.9,13.9-33.4c8.5,1.5,18.4,17.6,26,40.3
					c20.8-9.4,38.5-12.6,45.3-6.9s0.9,18.8-13.5,33.6c29,8,49.1,17.1,50.2,23.7c1.1,6.6-17.1,9-45.1,7.2
					c20.3,20.8,31,36.8,25.7,40.4s-25.1-6.1-50.3-23.5c-0.4,21.4-5.3,34.9-13.9,33.4c-8.5-1.5-18.4-17.6-26-40.3
					C499.2,171.7,481.4,174.8,474.7,169.1z"/>
				
					<ellipse transform="matrix(0.4582 -0.8888 0.8888 0.4582 175.4553 545.2507)" class="st2" cx="535" cy="128.7" rx="21.1" ry="32.4"/>
			</g>
		</g>
	</g>
	<g>
		<g>
			<g>
				<path class="st0" d="M622.2,274.3c9.6,51.9-3.4,106.5-34.5,148.9c-4.6,6.2,5.8,12.2,10.4,6.1c33.1-45.1,45.9-103.2,35.7-158.1
					C632.3,263.6,620.8,266.8,622.2,274.3L622.2,274.3z"/>
			</g>
		</g>
		<g>
			<g id="Flower_13_">
				<path class="st5" d="M644.9,293.3c5.4-2.8,4.9-14.5-0.4-29.7c19.5,1,33.8-1,36-5.9s-8.3-11.4-25.8-17c17.1-11.2,27.3-21,25-25.2
					c-2.4-4.2-16.7-1.6-36,5.7c4.7-16.8,4.8-28.7-0.7-29.7s-15.3,9.2-25.2,25.1c-10.4-12.6-20.5-19.6-26-16.8s-4.9,14.5,0.4,29.7
					c-19.5-1-33.8,1-36,5.9s8.3,11.4,25.8,17c-17.1,11.2-27.3,21-25,25.2c2.4,4.2,16.7,1.6,36-5.7c-4.7,16.8-4.8,28.7,0.7,29.7
					s15.3-9.2,25.2-25.1C629.4,289.1,639.5,296,644.9,293.3z"/>
				
					<ellipse transform="matrix(0.9228 -0.3854 0.3854 0.9228 -47.2088 257.0427)" class="st2" cx="617.6" cy="246.3" rx="21.7" ry="16.9"/>
			</g>
		</g>
	</g>
	<g>
		<g>
			<g>
				<path class="st0" d="M692.1,193c-34.4,49.6-33.7,117,1.8,165.9c4.5,6.2,14.9,0.2,10.4-6.1c-33.2-45.7-34-107.3-1.8-153.8
					C706.8,192.7,696.4,186.7,692.1,193L692.1,193z"/>
			</g>
		</g>
		<g>
			<g id="Flower_14_">
				<path class="st6" d="M658.7,190.2c-4.5-6.7,4-16.6,20.3-25.8C655.8,150,640.6,137,641.4,131c0.7-6,17.2-3.5,41.1,5.2
					c-12.3-23.2-17.6-39.9-12.1-41.7c5.5-1.8,20.3,11.7,37.8,33.2c5.8-18.5,13.5-29,20.6-25.6c7,3.4,11.5,20,12.4,41.7
					c20.5-2.9,36.7-1.2,41.2,5.5s-4,16.6-20.3,25.8c23.2,14.4,38.4,27.4,37.6,33.4c-0.7,6-17.2,3.5-41.1-5.2
					c12.3,23.2,17.6,39.9,12.1,41.7s-20.3-11.7-37.8-33.2c-5.8,18.5-13.5,29-20.6,25.6c-7-3.4-11.5-20-12.4-41.7
					C679.4,198.6,663.2,196.9,658.7,190.2z"/>
				
					<ellipse transform="matrix(0.6894 -0.7244 0.7244 0.6894 100.7447 575.5173)" class="st2" cx="721.5" cy="170.3" rx="19.1" ry="29.4"/>
			</g>
		</g>
	</g>
	<g>
		<g>
			<g>
				<path class="st0" d="M402.1,289.2c-27.9,14.7-49.2,41.3-57,71.9c-8.3,32.6-0.8,68.6,19.6,95.3c4.6,6.1,15,0.1,10.4-6.1
					c-18.5-24.3-25.9-56.3-18.4-86.1c7-27.8,26.1-51.5,51.5-64.8C415,295.9,408.9,285.6,402.1,289.2L402.1,289.2z"/>
			</g>
		</g>
		<g>
			<g id="Flower_8_">
				<path class="st7" d="M361.3,304.5c-5.7-5.4,1.3-18.4,16.4-33.2c-26.2-6.9-43.9-15.2-44.2-21.6c-0.3-6.4,17-9.3,43-8.4
					c-16.6-19.7-24.7-34.9-19.4-38.6c5.3-3.7,22.8,5.1,44.3,21.3c2.8-20.9,9-34.3,16.7-33.1c7.8,1.2,15.2,16.6,19.7,38.6
					c20.5-9.9,37.4-13.5,43.1-8.2c5.7,5.4-1.3,18.4-16.4,33.2c26.2,6.9,43.9,15.2,44.2,21.6c0.3,6.4-17,9.3-43,8.4
					c16.6,19.7,24.7,34.9,19.4,38.6c-5.3,3.7-22.8-5.1-44.3-21.3c-2.8,20.9-9,34.3-16.7,33.1c-7.8-1.2-15.2-16.6-19.7-38.6
					C384,306.2,367,309.8,361.3,304.5z"/>
				
					<ellipse transform="matrix(0.4206 -0.9072 0.9072 0.4206 5.9904 535.5891)" class="st2" cx="422.3" cy="263.1" rx="21.6" ry="28.7"/>
			</g>
		</g>
	</g>
</g>
</svg>
